<svg id="Capa_1" data-name="Capa 1" xmlns="http://www.w3.org/2000/svg" viewBox="0 0 1558.29 271.33"><title>conecta-icon</title><path d="M351.7,276.23l-37.58,34.83c-40.74-44.9-102.79-34.32-129.62-4.13-28.9,32.52-27.72,88.7,3.62,119.3C216.5,453.94,274.56,460.84,314,418l37.22,34.45c-5.44,10.28-13.36,17.81-22.56,24-20.19,13.65-42.87,20.37-66.85,22.95-36.5,3.92-70.73-3.05-101.55-23.39-33.35-22-51.26-53.9-56.57-93-5.24-38.49,3.48-73.55,28.35-103.84,22.22-27.06,51.35-42.45,85.66-47.85S285,230.17,316.23,246C330.23,253.1,342.21,262.72,351.7,276.23Z" transform="translate(-102.18 -229.11)"/><path d="M1073.41,411.4h-151c2.8,14.42,9.51,25.19,22.05,31.74,27.36,14.3,53.8,12.35,79.25-4.87,2.07-1.4,4.09-2.87,6.13-4.3a5.33,5.33,0,0,1,1.12-.23l29.73,32c-6.22,8.81-14,15.71-23.45,19.94-43.17,19.19-86.16,19.48-127.37-4.82s-57.26-73.39-41.16-120.32c14.43-42.07,51.54-68.05,97.74-68.89,26.11-.48,50.53,4.72,71.12,21.5C1068.66,338.48,1079.35,371.58,1073.41,411.4ZM1018.31,377c1.28-21.93-21.31-41.2-47.48-41.35-28.2-.17-47.17,19.21-48.09,41.35Z" transform="translate(-102.18 -229.11)"/><path d="M490,498.2c-29.7-.32-51.56-3.45-71.28-14.83-32.92-19-48.47-48.58-49.36-85.84C368,341.82,407,299,462.33,292.59c25.62-3,50-.67,72.8,11.13,35.71,18.44,54.1,48.58,55.24,88.46,1.2,41.85-17.15,73.43-53.73,93.9C520,495.4,501.65,498.51,490,498.2ZM532,392.74c-.86-4.33-1.63-11.51-3.75-18.27-6.64-21.11-25.44-35.28-46.35-35.58-22.72-.32-42.82,12.88-49.9,33-4,11.38-4.42,23.09-2.69,35,5.15,35.53,41.91,55,74,38.81C523.79,435.41,530.94,417.17,532,392.74Z" transform="translate(-102.18 -229.11)"/><path d="M1600.75,378.79c4.32-15.63-4.1-31.61-20-37-21-7.16-41.72-4.76-61.87,3.6-6.88,2.86-13.41,6.58-20.54,10.13q-9.84-19.22-20.17-39.39c13.31-9.93,27.74-17.1,43.8-20,29-5.17,58.13-4.87,86.75,2.29,32.17,8,50.51,31.78,51.25,67.54.88,42.44.28,84.92.31,127.38a5.49,5.49,0,0,1-.35,1.23h-52c-.36-6.49-.73-13.16-1.09-19.82l-1.59-1.06a36.85,36.85,0,0,1-3.7,5c-18.1,17.63-40.22,22.5-64.51,19.73a145.68,145.68,0,0,1-23-4.3c-28.07-7.94-44.3-30.05-43.67-58.78.56-25.95,18.22-46.58,45.83-53.34,16.36-4,33.08-3.1,49.72-3.19C1577.54,378.74,1589.17,378.79,1600.75,378.79Zm.86,32c-1.49,0-3.12-.09-4.73,0-16.77,1-33.54,2-50.3,3.2-10.42.74-16.88,6.71-18.81,16.83-2,10.48,2.39,19.72,11.66,24.09,7.64,3.6,15.74,5.77,24.19,4.92C1586.69,457.5,1610.34,443.57,1601.61,410.75Z" transform="translate(-102.18 -229.11)"/><path d="M828.1,495.44H772.19v-6.1c0-32.82.09-65.64-.07-98.46A94.4,94.4,0,0,0,770.45,373c-4-20.26-16.86-30.68-37.47-31-30-.44-48.52,16.64-49.43,47.39-1,32.79-.52,65.62-.68,98.43,0,2.15,0,4.29,0,6.8h-57V295.73h53.88v21c3.34-2.37,5.74-4,8.08-5.73,33.65-24.8,69.31-26,105.83-7.74,22,11,33.91,30.06,34.31,54.68.73,45.11.4,90.24.49,135.37A14.12,14.12,0,0,1,828.1,495.44Z" transform="translate(-102.18 -229.11)"/><path d="M1254.91,424.81c11.57,6.32,24.24,13.31,37,20.14,3.58,1.92,4.57,3.88,2.57,7.86-8.63,17.18-22.37,28.73-39.56,36.51-41.73,18.89-96.43,10.12-129.74-21.07-22.78-21.33-31.67-48.27-30.16-78.94,2.45-49.86,36.29-85.35,86.27-95.41,27.79-5.59,54.69-3.33,80,10.24,16.41,8.78,29.53,23.33,35.26,38.93l-43.46,23.39c-2.33-2.47-4.59-5.09-7.09-7.46-10-9.47-21.23-16.85-35-18.95-20.15-3.07-36,4.78-47.42,21.13-13.26,19-13.08,48.38-.35,67.64,14,21.2,40.09,28.36,63.35,16.15C1236.42,439.8,1244.91,432,1254.91,424.81Z" transform="translate(-102.18 -229.11)"/><path d="M1333.19,343.83h-29.62v-44.7h28.89V251.06h58.82v47.29h49.6v44.46h-48.61c-.16,2.36-.38,4.11-.39,5.86,0,24.33-.09,48.66.06,73a54.37,54.37,0,0,0,1.57,12.84c3.44,13.83,14.33,20.76,28.3,17.78,6.27-1.33,12.31-3.77,19-5.88,3.8,10,7.75,20.3,11.68,30.66,3.75,9.85,3.75,9.86-6,14.47-18.06,8.58-37,8.77-56.23,5.79-15-2.32-28.75-7.28-39.48-18.5-12.72-13.3-17.13-29.89-17.4-47.65-.4-27.14-.2-54.3-.25-81.46C1333.19,347.92,1333.19,346.13,1333.19,343.83Z" transform="translate(-102.18 -229.11)"/></svg>