<svg id="Capa_2" data-name="Capa 2" xmlns="http://www.w3.org/2000/svg" viewBox="0 0 629.86 566.35"><defs><style>.cls-1{fill:#19486a;}.cls-2{fill:#fd6925;}.cls-3{fill:#fc9c24;}.cls-4{fill:#dd1367;}</style></defs><title>details-lightbox-1</title><path class="cls-1" d="M596.19,596.65a33.09,33.09,0,0,1-17.52-5.15,1.21,1.21,0,0,0-1.54,0,31.85,31.85,0,0,1-17.43,5.29A33,33,0,0,1,527,570.18a32.23,32.23,0,0,1,.42-14.39,1.5,1.5,0,0,0-.56-1.8,32.52,32.52,0,0,1-11.4-19.59,33,33,0,0,1,16.79-34.66,31.64,31.64,0,0,1,13.65-3.86c.84,0,1-.55,1.2-1.11,4.3-10.35,11.83-17.11,22.67-19.95a32.86,32.86,0,0,1,38.7,20c.21.54.35,1,1.13,1.06a32,32,0,0,1,24.58,13.38,32.71,32.71,0,0,1-5.21,44.49,2,2,0,0,0-.74,2.3c4.57,18.2-7.91,37.08-26.45,40C599.9,596.36,598,596.46,596.19,596.65Zm5.58-100.41a26.14,26.14,0,0,0-25.15-15.83c-9.94.4-21.41,8.36-22.88,15.85,10.89,2.27,18.84,8.41,24,18.44Q585.41,499.62,601.77,496.24Zm-71.5,51.91a33.41,33.41,0,0,1,25.19-17.06c-8.13-7.9-11.57-17.4-10.45-28.53a26.28,26.28,0,0,0-22.37,18.54A25.94,25.94,0,0,0,530.27,548.15Zm33.49,9.42a33,33,0,0,1-30.15.86c-2.06,7.89.36,19.5,10.11,26.67a25.89,25.89,0,0,0,28.73,1.42C564.93,578.35,562.05,568.75,563.76,557.57Zm36.42-26.68c11.24,1.76,19.5,7.49,25.05,17.13,6.19-4.92,10.76-15.42,7.81-26.18-3.51-12.76-14.67-18.73-22.59-19.23C611.55,513.6,608.18,523,600.18,530.89Zm-8.51,26.71c1.76,11.06-1,20.62-8.38,28.83,7.05,4.58,19.1,5.44,28.64-1.69,10-7.5,11.88-19.63,9.91-26.28C611.72,563,601.71,562.73,591.67,557.6Zm-7.6-17.27c6.94,14.51,24.71,18.17,35.59,11.61C613.63,539.06,597.08,533.23,584.07,540.33Zm-6.22,42.09a26.06,26.06,0,0,0-.2-37.33C567.66,554.27,566.72,572,577.85,582.42Zm-6.57-41.91c-13.22-7.23-29.93-.74-35.38,11.59C548.76,559,565.23,553.31,571.28,540.51Zm10.28-7.79c14.59-2,24.67-16.26,22.08-30a26.38,26.38,0,0,0-22.08,30Zm-7.74-.07a26.19,26.19,0,0,0-22-29.95C549.19,517.48,560.46,531.24,573.82,532.65Z" transform="translate(-55.73 -44.02)"/><path class="cls-1" d="M471,413.3c4.09-16.63,8.14-33.13,12.23-49.79H467.49v-8.32h26.59c-.11,3.3.2,6.53-.6,9.79q-5.78,23.49-11.34,47c-.24,1-.59,1.37-1.67,1.34-2.74-.1-5.49,0-8.23,0Z" transform="translate(-55.73 -44.02)"/><path class="cls-1" d="M449.68,366.63l-8.29,3a1.85,1.85,0,0,1-.18-.51c0-2.34,0-4.68,0-7a1.32,1.32,0,0,1,.71-.89c3.47-1.63,6.93-3.27,9.84-5.82a1.28,1.28,0,0,1,.73-.27h7.72a2.41,2.41,0,0,1,.44.1v58h-11Z" transform="translate(-55.73 -44.02)"/><path class="cls-1" d="M584.21,438.14c3.87,1.81,4.95,7.32,2.08,10.25a5.22,5.22,0,0,1-3,1.54c-2.61.22-5.25.07-7.95.07V427.79a74.43,74.43,0,0,1,8.36.56c2.46.41,3.65,2.59,3.48,5.34C587.07,435.68,586.62,437.47,584.21,438.14Zm-4.86,9.16c1.48,0,3,.37,4.06-1a5.7,5.7,0,0,0,0-5.34c-1-1.39-2.52-1.11-4-1.07Zm0-10.33c1.46-.12,3,.4,3.88-1.1a3.9,3.9,0,0,0,0-4.17c-.91-1.32-2.45-1-3.87-.95Z" transform="translate(-55.73 -44.02)"/><path class="cls-1" d="M647.53,355c2.92.07,5.8-.33,8.61.51,2.38.7,3.43,2.31,3.43,5.34,0,2.05-.2,4.1-2.3,5.31-.18.1-.2.72-.11,1,.81,3,1.66,6,2.5,9,.09.32.15.64.24,1H656c-.64-2.4-1.27-4.8-1.91-7.21-.14-.52-.27-1.05-.41-1.57-.39-1.48-.39-1.48-2.16-1.22v10h-3.94Zm4,9.56c1.47-.07,3,.22,3.8-1.28a4.36,4.36,0,0,0-.13-4.54c-.84-1.27-2.3-1-3.67-1Z" transform="translate(-55.73 -44.02)"/><path class="cls-1" d="M557.06,413.62h-3.94V391.35c2.83.17,5.64.18,8.39.56a4.07,4.07,0,0,1,3.52,3.83,15,15,0,0,1,0,3.54,4,4,0,0,1-2.5,3.46l3,10.88h-4c-.44-1.67-.9-3.38-1.35-5.1-.32-1.21-.64-2.42-.94-3.63-.39-1.54-.44-1.57-2.2-1.26Zm0-16c0,.88,0,1.76,0,2.64a.86.86,0,0,0,.3.65,3.07,3.07,0,0,0,3.95-2.11,9.62,9.62,0,0,0,.07-1.52c0-2.64-1.35-3.18-3.79-3-.19,0-.5.42-.52.66C557,395.79,557,396.7,557,397.61Z" transform="translate(-55.73 -44.02)"/><path class="cls-1" d="M595.11,413.66c-1.22,0-2.34,0-3.45,0-.25,0-.61-.45-.69-.75-.74-2.63-1.42-5.29-2.12-7.93-.41-1.56-.41-1.56-2.17-1.37v10h-3.95V391.36c2.8.15,5.57.14,8.29.52a4,4,0,0,1,3.58,4,14.44,14.44,0,0,1-.28,4.3,5,5,0,0,1-1.62,2.21c-.42.38-.57.59-.41,1.15.88,3,1.71,6.05,2.56,9.08C594.93,412.92,595,413.24,595.11,413.66Zm-8.37-19.43v6.71c1.47,0,3,.27,3.79-1.22a4.34,4.34,0,0,0-.14-4.55C589.54,393.92,588.09,394.18,586.74,394.23Z" transform="translate(-55.73 -44.02)"/><path class="cls-1" d="M534.45,402.64a48.46,48.46,0,0,1-.05,6.38c-.56,4.25-3.45,5.11-6.56,4.93-3.91-.23-5.55-1.7-5.85-5.74a82.64,82.64,0,0,1,0-11.67c.31-4.38,3.18-5.56,6.92-5.29s5.55,2.32,5.65,6.1c0,1.76,0,3.53,0,5.29Zm-3.86-.06c0-1.32,0-2.63,0-3.95a17.69,17.69,0,0,0-.14-2.63,2.22,2.22,0,0,0-4.4.09,8.31,8.31,0,0,0-.13,1.41q0,5.07,0,10.14a8.7,8.7,0,0,0,.16,1.61A2.1,2.1,0,0,0,528.6,411c1.3-.19,1.95-1,2-2.75C530.62,406.37,530.59,404.48,530.59,402.58Z" transform="translate(-55.73 -44.02)"/><path class="cls-1" d="M646.48,438.9a57.75,57.75,0,0,1,0-6.58c.34-2.92,2.23-4.45,5.15-4.61h.82c4.36,0,6.48,2.05,6.53,6.45,0,3.25,0,6.5,0,9.75a10.14,10.14,0,0,1-.48,2.78c-.76,2.51-2.66,3.57-5.14,3.69a11,11,0,0,1-2.92-.22c-2.58-.56-4.07-2.68-4.16-5.86-.06-1.79,0-3.59,0-5.39Zm3.84,0h0c0,1.45,0,2.91,0,4.36a14.79,14.79,0,0,0,.18,2.41,2,2,0,0,0,2.21,1.77,2,2,0,0,0,2.13-1.89,8.37,8.37,0,0,0,.14-1.5c0-3.42,0-6.83,0-10.25a8.06,8.06,0,0,0-.2-1.7,1.87,1.87,0,0,0-1.69-1.51c-1.68-.26-2.71.67-2.76,2.63S650.32,437,650.32,438.92Z" transform="translate(-55.73 -44.02)"/><path class="cls-1" d="M522.16,438.94c.1-2.23,0-4.48.34-6.68.39-2.9,2.28-4.41,5.21-4.55h.71c4.18,0,6.13,1.44,6.46,5.6a75.61,75.61,0,0,1,0,11.56c-.35,4.68-3.33,5.8-7.17,5.5-3.47-.28-5.26-2.34-5.4-6-.07-1.79,0-3.59,0-5.38Zm4.13,0h0c0,1.32,0,2.64,0,4a17.66,17.66,0,0,0,.16,2.72,2,2,0,0,0,2.25,1.84,2,2,0,0,0,2.11-1.9,8.57,8.57,0,0,0,.14-1.51q0-5.07,0-10.14a7.85,7.85,0,0,0-.16-1.61,1.91,1.91,0,0,0-1.95-1.71c-1.6-.13-2.48.75-2.54,2.67S526.29,437.05,526.29,438.94Z" transform="translate(-55.73 -44.02)"/><path class="cls-1" d="M571.82,439.07c0,1.66,0,3.32,0,5-.12,4.48-2.84,6.83-7.29,6.33-3.42-.38-5.13-1.94-5.35-5.74a98.69,98.69,0,0,1,.13-12.16c.21-3.05,2.26-4.66,5.32-4.78h.82c4.17,0,6.24,2,6.36,6.19.05,1.72,0,3.45,0,5.18Zm-8.69-.14h.15c0,2.26-.09,4.53,0,6.78.07,1.18.93,1.73,2.11,1.75a2,2,0,0,0,2.18-1.69,7.3,7.3,0,0,0,.19-1.61q0-5.18,0-10.34a4.17,4.17,0,0,0-.31-1.88,2.67,2.67,0,0,0-1.41-1.24c-1.78-.51-2.88.51-2.93,2.65C563.09,435.21,563.13,437.07,563.13,438.93Z" transform="translate(-55.73 -44.02)"/><path class="cls-1" d="M562,364.55v12.64h-3.31V355a17.78,17.78,0,0,1,2.31,0c.25,0,.55.43.68.73,1.54,3.5,3,7,4.57,10.51.12.29.27.57.41.85l.25,0V366c0-3.35,0-6.71,0-10.06,0-.74.19-1.05,1-1s1.47,0,2.25,0v22.12c-.11.06-.17.11-.23.11-2.27.14-2.28.14-3.14-1.92q-2.1-5.06-4.21-10.11c-.09-.24-.21-.47-.32-.7Z" transform="translate(-55.73 -44.02)"/><path class="cls-1" d="M544,405a2.81,2.81,0,0,1-.15-.42c-.18-2.06-.18-2.06,1.89-2.06h4v11.13h-2.45l-.31-1.72c-.1,0-.2,0-.21,0-1,1.81-2.62,2.27-4.58,2.05a4.7,4.7,0,0,1-4.29-3.34,10.14,10.14,0,0,1-.6-3.07c0-3.61-.13-7.25.15-10.85.34-4.45,3-5.7,6.77-5.44,4.18.27,6.08,3,5.39,7.48H546.1c-.08-.86-.13-1.76-.23-2.65a1.92,1.92,0,0,0-2.15-1.94,2,2,0,0,0-2.19,1.93,29.85,29.85,0,0,0-.15,3.54c0,3.08,0,6.16.17,9.23a2.2,2.2,0,0,0,3.27,2,2.78,2.78,0,0,0,1.42-2.53c.08-.81,0-1.63.08-2.43s-.25-1-.94-.92C545,405,544.51,405,544,405Z" transform="translate(-55.73 -44.02)"/><path class="cls-1" d="M597.28,377.22h-3.61l-.94-5.1c-1.15,0-2.3,0-3.43,0-.22,0-.52.46-.58.75-.3,1.42-.53,2.85-.79,4.3h-3.74c.31-1.59.61-3.11.91-4.62,1.14-5.56,2.29-11.12,3.4-16.69.13-.66.33-.95,1-.91,1.08.08,2.43-.29,3.15.23s.62,1.9.83,2.91q1.86,9.09,3.69,18.18A7,7,0,0,1,597.28,377.22Zm-5-7.75c-.47-2.91-.93-5.72-1.38-8.54h-.25l-1.39,8.54Z" transform="translate(-55.73 -44.02)"/><path class="cls-1" d="M547,377.21H543.2c1.51-7.41,3-14.76,4.52-22.2,1.26,0,2.48-.05,3.69,0,.24,0,.58.49.65.81,1,4.8,2,9.61,2.92,14.41.46,2.29.93,4.57,1.43,7-1.14,0-2.18,0-3.21,0-.23,0-.56-.42-.62-.69-.26-1.19-.46-2.39-.63-3.6-.09-.62-.34-.88-1-.84a9.58,9.58,0,0,1-1.93,0c-1-.14-1.28.34-1.39,1.2C547.46,374.6,547.2,375.89,547,377.21Zm4.38-7.74c-.49-3-1-5.78-1.42-8.59h-.23c-.45,2.84-.91,5.67-1.38,8.58Z" transform="translate(-55.73 -44.02)"/><path class="cls-1" d="M674.74,377.13a1.63,1.63,0,0,1-.34.11c-3.39.23-3.35.22-3.91-3.1-.42-2.44.11-2-2.39-2-1.85,0-1.84,0-2.16,1.79-.19,1.1-.41,2.19-.62,3.31h-3.75c1.5-7.41,3-14.76,4.51-22.21,1.26,0,2.47,0,3.68,0,.23,0,.58.43.64.71,1.12,5.39,2.2,10.79,3.29,16.19C674,373.66,674.38,375.38,674.74,377.13Zm-5-7.66-1.42-8.54-.25,0-1.36,8.5Z" transform="translate(-55.73 -44.02)"/><path class="cls-1" d="M632,377.26c.39-1.94.74-3.72,1.11-5.5,1.07-5.3,2.17-10.59,3.22-15.89.13-.68.39-.91,1.06-.88.84.05,1.69,0,2.54,0,.5,0,.78.08.89.67q2.13,10.63,4.29,21.26c0,.06,0,.13,0,.27h-3.62c-.24-1.39-.52-2.8-.74-4.22-.09-.65-.34-.94-1-.88-1,.08-2.2-.26-2.85.22s-.51,1.72-.69,2.64c-.46,2.3-.45,2.31-2.75,2.3Zm5.11-7.81h3l-1.39-8.54h-.24Z" transform="translate(-55.73 -44.02)"/><path class="cls-1" d="M522.92,377.21h-3.66c-.25-1.43-.51-2.82-.73-4.21-.1-.62-.31-1-1-.9-1,.09-2.2-.27-2.85.21s-.52,1.71-.71,2.63c-.47,2.32-.46,2.33-2.83,2.32h-1.32c.4-2,.76-3.89,1.14-5.77,1.06-5.2,2.14-10.39,3.17-15.59.14-.74.45-.95,1.14-.91,1,.07,2.39-.3,3,.22s.61,1.9.82,2.92q1.85,9,3.65,18C522.83,376.43,522.86,376.76,522.92,377.21Zm-5-7.74-1.39-8.58h-.23c-.47,2.83-.93,5.67-1.4,8.58Z" transform="translate(-55.73 -44.02)"/><path class="cls-1" d="M571.86,408.56c-.31,1.73-.61,3.36-.92,5H567.2c.5-2.51,1-5,1.49-7.46.92-4.57,1.87-9.14,2.78-13.72.13-.68.37-1,1.12-.94a15.16,15.16,0,0,0,2.43,0c.71-.06.93.26,1.05.89q2.1,10.44,4.23,20.88a2,2,0,0,1,0,.35h-3.65c-.23-1.34-.51-2.69-.7-4.05-.1-.73-.32-1.09-1.13-1S572.93,408.56,571.86,408.56Zm3.46-2.65c-.48-2.9-.94-5.73-1.41-8.56l-.24,0c-.46,2.82-.91,5.64-1.38,8.54Z" transform="translate(-55.73 -44.02)"/><path class="cls-1" d="M623.92,377.22H620c0-.36-.07-.72-.07-1.07,0-6.67,0-13.34,0-20,0-.86.19-1.2,1.12-1.16,2.1.1,4.2,0,6.29.15a4.35,4.35,0,0,1,4.37,3.8,14.22,14.22,0,0,1,.05,4.51c-.35,2.29-2.26,3.68-4.84,3.84a11,11,0,0,1-1.72,0c-1-.11-1.3.21-1.27,1.21.07,2.51,0,5,0,7.52Zm0-12.74a20.83,20.83,0,0,0,2.11,0,2,2,0,0,0,2.08-2,12.75,12.75,0,0,0,0-2.83,1.65,1.65,0,0,0-1.29-1.64,12.2,12.2,0,0,0-2.42-.13.72.72,0,0,0-.46.51C623.92,360.41,623.93,362.4,623.93,364.48Z" transform="translate(-55.73 -44.02)"/><path class="cls-1" d="M610.33,360.74l-3.26.67c-.13-.68-.21-1.34-.38-2-.34-1.25-1.13-1.83-2.18-1.64a2,2,0,0,0-1.67,2.37,4.2,4.2,0,0,0,1.67,2.91c1.33,1.2,2.71,2.35,4,3.61a7.22,7.22,0,0,1,2.19,6.38,4.58,4.58,0,0,1-3.5,4.16c-4.3,1.07-7.56-.62-8.06-5.53-.06-.65.09-1,.81-1.1s1.64-.31,2.48-.48a12.27,12.27,0,0,0,.57,2.52,3.73,3.73,0,0,0,1.45,1.68,1.67,1.67,0,0,0,2.45-1.41,4.12,4.12,0,0,0-1.33-3.78c-1.35-1.27-2.77-2.48-4.17-3.71a6.65,6.65,0,0,1-2.07-6.91,4.32,4.32,0,0,1,2.63-3.15,7,7,0,0,1,5.06-.24c2.13.69,2.85,2.44,3.23,4.42C610.3,359.89,610.29,360.26,610.33,360.74Z" transform="translate(-55.73 -44.02)"/><path class="cls-1" d="M541.21,443a16.73,16.73,0,0,0,.45,2.28,2.29,2.29,0,0,0,2.93,1.92,2.19,2.19,0,0,0,1-1.53,3.8,3.8,0,0,0-1.27-3.58c-1.33-1.25-2.71-2.45-4.09-3.65a6.72,6.72,0,0,1-2.16-7.16,3.92,3.92,0,0,1,2.93-3.1,11.55,11.55,0,0,1,4.38-.19c2.2.38,3.87,3,3.63,5.21a.75.75,0,0,1-.42.56c-.92.22-1.84.36-2.81.53-.15-.79-.23-1.49-.42-2.16a1.93,1.93,0,0,0-3.78.29,3.58,3.58,0,0,0,1.39,3.31c1.16,1,2.37,2,3.51,3.09a8.39,8.39,0,0,1,3,5.88c.16,3.67-2.48,6.16-6.42,5.71-3.42-.4-5.26-2.76-5.18-6.7Z" transform="translate(-55.73 -44.02)"/><path class="cls-1" d="M662,443.63l3.22-.67a18.55,18.55,0,0,0,.52,2.43,2.77,2.77,0,0,0,1,1.48,2.68,2.68,0,0,0,2,.26,2.14,2.14,0,0,0,1-1.47,3.91,3.91,0,0,0-1.31-3.67c-1.3-1.22-2.66-2.4-4-3.57a6.53,6.53,0,0,1-2.13-7.24A5,5,0,0,1,664,428.7a6.41,6.41,0,0,1,6.57-.39,5.58,5.58,0,0,1,2.54,4.9.67.67,0,0,1-.38.49c-.92.21-1.85.37-2.84.55-.15-.77-.23-1.47-.42-2.13a1.75,1.75,0,0,0-2-1.44,1.79,1.79,0,0,0-1.77,1.75,3.65,3.65,0,0,0,1.45,3.29c1.18,1.06,2.42,2.07,3.57,3.16a7.84,7.84,0,0,1,2.87,5.73c.05,3.86-2.53,6.22-6.37,5.76C663.72,450,661.71,447.39,662,443.63Z" transform="translate(-55.73 -44.02)"/><path class="cls-1" d="M637.79,442.85c.89-4.92,1.77-9.84,2.66-14.83h3.6c-.37,1.9-.73,3.75-1.11,5.6-1.06,5.2-2.15,10.4-3.18,15.6-.14.68-.38.94-1,.89-1-.08-2.32.24-2.91-.28s-.54-1.87-.74-2.86q-1.89-9.24-3.77-18.48a3.23,3.23,0,0,1,0-.55c1,0,2,0,3,0,.21,0,.5.46.56.75.9,4.62,1.77,9.23,2.65,13.85,0,.1.06.19.09.29Z" transform="translate(-55.73 -44.02)"/><path class="cls-1" d="M600.29,428h9.09v2.7H604.2v5.11c0,1.34,0,1.34,1.3,1.35h2.86v2.77c-1.08,0-2.12,0-3.15,0-.72,0-1.05.17-1,1,.05,1.87.05,3.73,0,5.59,0,.79.31,1,1,1,1.41,0,2.82,0,4.3,0V450a6.54,6.54,0,0,1-.7.1c-2.58,0-5.15,0-7.72,0-.63,0-.91-.15-.9-.85,0-6.87,0-13.75,0-20.62A4.09,4.09,0,0,1,600.29,428Z" transform="translate(-55.73 -44.02)"/><path class="cls-1" d="M576.77,374.53c1.77,0,3.36.05,4.94,0,1,0,1.37.25,1.24,1.24a11.75,11.75,0,0,0,0,1.46H572.76a20,20,0,0,1,.55-3.58c1.65-4.94,3.42-9.84,5.14-14.75.1-.28.18-.57.32-1h-5.26a2,2,0,0,1-.21-.32c-.25-2.51-.25-2.51,2.22-2.51,2.17,0,4.34,0,6.51,0,.71,0,1,.23.91.93a15.42,15.42,0,0,1-.48,2.36c-1.75,5-3.54,10-5.31,15C577,373.64,576.93,374,576.77,374.53Z" transform="translate(-55.73 -44.02)"/><path class="cls-1" d="M614.55,430.89H610.8V428H622v2.86h-3.46v1.3c0,5.59,0,11.18,0,16.77,0,1-.3,1.24-1.21,1.17s-1.75,0-2.79,0Z" transform="translate(-55.73 -44.02)"/><path class="cls-1" d="M525.31,377.2V355c1.18,0,2.32,0,3.45,0,.18,0,.44.37.48.59a7.26,7.26,0,0,1,0,1.32v17.57h5.29v2.68Z" transform="translate(-55.73 -44.02)"/><path class="cls-1" d="M510.94,413.58v-22h3.95v19.36h5.28v2.65Z" transform="translate(-55.73 -44.02)"/><path class="cls-1" d="M511,428h3.92v1.15c0,5,0,9.89,0,14.84,0,1.1-.31,2.63.27,3.18s2.1.21,3.21.25h1.77V450H511Z" transform="translate(-55.73 -44.02)"/><path class="cls-1" d="M592.42,428h4c0,.34.06.63.06.93,0,5.38,0,10.76,0,16.14a13.65,13.65,0,0,1-.2,2.21,3.46,3.46,0,0,1-3.37,3.2,32.29,32.29,0,0,1-3.27,0V448c.09-.06.14-.12.2-.13,2.39-.38,2.64-.68,2.64-3.07,0-5.21,0-10.42,0-15.63Z" transform="translate(-55.73 -44.02)"/><path class="cls-1" d="M536.94,377.2V355c1.15,0,2.29,0,3.42,0,.17,0,.4.3.47.5a2.73,2.73,0,0,1,0,.81V377.2Z" transform="translate(-55.73 -44.02)"/><path class="cls-1" d="M624.39,428h3.9v22.1c-1.15,0-2.29,0-3.42,0-.17,0-.41-.38-.45-.61a7.14,7.14,0,0,1,0-1.31q0-9.45,0-18.9Z" transform="translate(-55.73 -44.02)"/><path class="cls-2" d="M120.63,256.13c0-6,0-11.93,0-17.89a2.65,2.65,0,0,1,1.47-2.54c9.78-5.61,19.52-11.27,29.31-16.87a2.06,2.06,0,0,0,1.17-2.09c0-11.21,0-22.42-.05-33.64a2.68,2.68,0,0,1,1.51-2.6q15.4-8.85,30.78-17.77a2.68,2.68,0,0,1,3,0q15.18,8.81,30.43,17.55a3.34,3.34,0,0,1,1.9,3.32c-.06,11.05,0,22.09-.06,33.14a2.16,2.16,0,0,0,1.24,2.15c9.63,5.51,19.23,11.09,28.87,16.6a3.25,3.25,0,0,1,1.84,3.17q-.06,17.28,0,34.55a3.6,3.6,0,0,1-2,3.57q-15.09,8.6-30.08,17.36a3.21,3.21,0,0,1-3.66,0c-9.59-5.59-19.22-11.11-28.82-16.69a2,2,0,0,0-2.29,0c-9.66,5.62-19.35,11.18-29,16.79a3,3,0,0,1-3.39,0q-15.22-8.87-30.51-17.62a2.9,2.9,0,0,1-1.65-2.86C120.66,267.85,120.63,262,120.63,256.13Zm31.84,33.18c0-.61.06-1,.06-1.34,0-9.86,0-19.71,0-29.57a1.69,1.69,0,0,0-1-1.69q-12.9-7.41-25.78-14.87c-.3-.17-.63-.32-1.11-.55,0,.59-.09,1-.1,1.44,0,9.72,0,19.44,0,29.17a2.07,2.07,0,0,0,1.2,2.08q12.78,7.31,25.52,14.69C151.61,288.85,151.93,289,152.47,289.31Zm38-51.62c.36.24.58.43.83.57q13,7.52,26,15a1.43,1.43,0,0,0,1.66,0q13-7.51,25.94-15c.27-.16.53-.35.91-.61-.42-.27-.69-.46-1-.62q-12.82-7.42-25.66-14.85a1.85,1.85,0,0,0-2.13,0q-12.81,7.44-25.67,14.84C191.11,237.24,190.85,237.43,190.46,237.69Zm29.72,51.52c.44-.2.75-.3,1-.46q12.89-7.44,25.78-14.86a1.67,1.67,0,0,0,.94-1.69c0-9.89,0-19.79,0-29.68,0-.35,0-.71-.06-1.18-.4.19-.68.29-.94.44Q234,249.25,221.05,256.7a1.68,1.68,0,0,0-1,1.69c0,9.86,0,19.72,0,29.58C220.12,288.33,220.15,288.69,220.18,289.21Zm-31.81-84.76v29.74l25.75-14.86Zm27.72,11.37V186.07L190.32,201Zm-59.55,0L182.29,201l-25.75-14.87Zm0,73.52,25.78-14.88-25.78-14.88Zm27.69-18.42V241.24l-25.71,14.84Zm-25.71-51.59,25.72,14.84V204.48Z" transform="translate(-55.73 -44.02)"/><path class="cls-2" d="M75.57,83.17A7.77,7.77,0,0,1,71,86c-5.59,1.15-11.2-.42-13.6-6.92a25.35,25.35,0,0,1-1.58-8A34.05,34.05,0,0,1,57,59.56c1.92-6.05,6-9.25,12.26-9.88a20.63,20.63,0,0,1,7.43.58c4.85,1.31,7.68,4.71,9,9.34a31.54,31.54,0,0,1,1.21,7.78c.15,7.65.12,15.31,0,23a29.92,29.92,0,0,1-2,10.81,11.82,11.82,0,0,1-9.86,7.75,24.37,24.37,0,0,1-9.47-.33,10.41,10.41,0,0,1-8.19-8.22,53.58,53.58,0,0,1-.83-5.7c-.1-.7.11-1,.92-1q4.27.08,8.54,0c.79,0,.94.28,1,1a20.83,20.83,0,0,0,.44,3.61c.4,1.77,1.59,2.59,3.58,2.7a3.27,3.27,0,0,0,3.61-2.21,18.11,18.11,0,0,0,.88-4.65C75.66,90.55,75.57,87,75.57,83.17Zm.12-13.75V65a1.47,1.47,0,0,0,0-.21,36.81,36.81,0,0,0-.79-4.36c-.62-2-1.79-2.73-4-2.67a3.3,3.3,0,0,0-3.27,2.92,23,23,0,0,0-.69,5,69.5,69.5,0,0,0,.35,8.9c.32,2.67,2.25,3.85,4.89,3.47a4,4,0,0,0,3.5-4Z" transform="translate(-55.73 -44.02)"/><path class="cls-2" d="M145.12,60.81a57.44,57.44,0,0,1,0,5.87c-.37,3.54-2.21,5.14-5.75,5.26-1.76,0-3.52,0-5.28,0-.61,0-.84-.19-.84-.82,0-6.8,0-13.61,0-20.42,0-.27.38-.79.58-.79a69.82,69.82,0,0,1,7.38.26,4.36,4.36,0,0,1,3.85,4.24c.18,2.12.21,4.25.3,6.37Zm-7.93,8.34c3.09.45,4.15-.43,4.16-3.4q0-5,0-10a8,8,0,0,0-.2-1.61,1.81,1.81,0,0,0-1.6-1.49,16.62,16.62,0,0,0-2.35,0Z" transform="translate(-55.73 -44.02)"/><path class="cls-2" d="M199.28,72a30.38,30.38,0,0,1-3.2,0c-.31,0-.72-.53-.82-.88-.78-2.76-1.56-5.52-2.2-8.32-.25-1.11-.94-1-1.66-.91s-.56.72-.56,1.16c0,2.67,0,5.35,0,8,0,.76-.22,1-1,1a11.31,11.31,0,0,0-1.93,0c-.82.08-1-.24-1-1,0-4.84,0-9.68,0-14.52,0-1.89,0-3.79,0-5.68,0-.28.38-.79.59-.79a59.68,59.68,0,0,1,7.08.21c2.7.34,3.91,1.59,4.23,4.26a12.68,12.68,0,0,1-.39,4.28A3.63,3.63,0,0,1,197,60.55a1.15,1.15,0,0,0-.49,1.51c.85,2.91,1.66,5.84,2.47,8.76C199.09,71.14,199.16,71.47,199.28,72Zm-7.35-19.52c-.92-.23-1.17.29-1.12,1.29.07,1.62,0,3.24,0,4.87,0,.61.24.83.83.84,2.45.06,3.55-.93,3.7-3.38S194.47,52.47,191.93,52.43Z" transform="translate(-55.73 -44.02)"/><path class="cls-2" d="M147.45,97.23c0-2.12-.16-4.26,0-6.37.28-3,2.17-4.62,5.21-4.75a13.09,13.09,0,0,1,2.73.09,4.78,4.78,0,0,1,4.24,4.73c.18,4.28.21,8.58,0,12.86-.15,2.95-2.24,4.64-5.21,4.77a12.42,12.42,0,0,1-2.73-.09,4.86,4.86,0,0,1-4.23-4.66c-.24-2.18-.22-4.38-.32-6.57Zm3.74,0h0c0,1.48,0,3,0,4.46a13.94,13.94,0,0,0,.21,2.51,2,2,0,0,0,2.22,1.67,2,2,0,0,0,2.17-1.73,4.92,4.92,0,0,0,.19-1.2c0-3.76,0-7.51,0-11.27,0-1.78-.77-2.72-2.14-2.82-1.68-.12-2.6.77-2.64,2.69S151.19,95.31,151.19,97.21Z" transform="translate(-55.73 -44.02)"/><path class="cls-2" d="M222.86,97.33c-.1,2.22,0,4.47-.34,6.67-.39,2.92-2.25,4.44-5.18,4.56a12.44,12.44,0,0,1-2.73-.09,5,5,0,0,1-4.28-5c-.14-4.15-.17-8.31,0-12.46.13-3,2.19-4.8,5.27-4.93a12.62,12.62,0,0,1,2.82.12c2.69.55,4.22,2.58,4.31,5.61,0,1.83,0,3.65,0,5.48Zm-4,0h0c0-2.06,0-4.13,0-6.19a2.14,2.14,0,0,0-2.14-2.34,2.08,2.08,0,0,0-2.47,2.07,9.52,9.52,0,0,0-.13,1.51c0,3.25,0,6.5,0,9.74a11.09,11.09,0,0,0,.16,1.82,2.13,2.13,0,0,0,2.46,1.87,2.24,2.24,0,0,0,2.13-2.49C218.86,101.35,218.83,99.36,218.83,97.36Z" transform="translate(-55.73 -44.02)"/><path class="cls-2" d="M122.1,132v3.64c0,2.67,0,5.35,0,8,0,.77-.16,1.08-1,1.07-2.31,0-2.31,0-2.31-2.29,0-6.2,0-12.39,0-18.59,0-1,.28-1.16,1.2-1.2a1.84,1.84,0,0,1,2.09,1.36c1.37,3.38,2.86,6.71,4.31,10.06.13.29.3.55.45.82l.29-.07v-1.05c0-3.35,0-6.7,0-10.06,0-.78.21-1.06,1-1,2.11,0,2.11,0,2.11,2.08,0,6.23,0,12.47,0,18.7,0,.41-.2,1.11-.47,1.2-1.15.4-2,.05-2.38-.76-1.53-3.68-3.05-7.37-4.59-11.05-.12-.3-.28-.59-.42-.88Z" transform="translate(-55.73 -44.02)"/><path class="cls-2" d="M127.12,62V61c0-3.32,0-6.64,0-10,0-.81.18-1.16,1.07-1.13,2.49.06,2.05-.21,2.06,2q0,9.29,0,18.59c0,.48.4,1.22-.46,1.44-1.28.33-2,0-2.45-1l-4.47-10.77a2.36,2.36,0,0,0-.68-1c0,.34-.06.68-.06,1,0,3.55,0,7.11,0,10.66,0,.81-.17,1.14-1,1.12-2.26,0-2.26,0-2.26-2.24,0-6.19,0-12.39,0-18.58,0-.44-.31-1.07.47-1.25,1.13-.26,2.18,0,2.48.7,1.49,3.4,3,6.82,4.44,10.23.18.42.39.84.58,1.25Z" transform="translate(-55.73 -44.02)"/><path class="cls-2" d="M122.1,95.61v3c0,2.91,0,5.82,0,8.74,0,.74-.2,1-1,1-2.34,0-2.34,0-2.34-2.26,0-6.2,0-12.4,0-18.6,0-.89.18-1.21,1.16-1.25a1.92,1.92,0,0,1,2.16,1.42c1.35,3.36,2.84,6.66,4.28,10,.13.29.29.56.44.84l.25-.06c0-.35.05-.7.05-1,0-3.36,0-6.71,0-10.06,0-.8.22-1.07,1-1,2.52.08,2.08-.3,2.09,2.09q0,9.26,0,18.5c0,.49.4,1.22-.45,1.45-1.27.33-2.05,0-2.47-1l-4.51-10.86c-.13-.31-.28-.6-.42-.89Z" transform="translate(-55.73 -44.02)"/><path class="cls-2" d="M290,144.75a29.38,29.38,0,0,1-3.29-.05c-.3,0-.67-.57-.78-.94-.75-2.74-1.44-5.48-2.15-8.23-.13-.49-.24-.94-.95-1-1.14,0-1.29.07-1.29,1.23,0,2.64,0,5.28,0,7.92,0,.79-.23,1.05-1,1.05-2.75,0-2.75,0-2.75-2.76,0-6.06,0-12.12,0-18.18,0-.91.27-1.17,1.15-1.12,2.13.11,4.27,0,6.38.24a4.53,4.53,0,0,1,4.35,4.82,11,11,0,0,1-.27,3.31,4.82,4.82,0,0,1-1.53,2.28,1.3,1.3,0,0,0-.5,1.68c.83,2.85,1.63,5.71,2.43,8.57C289.86,143.93,289.92,144.25,290,144.75Zm-3.92-16c-.06-2.93-1.16-3.47-3.67-3.49-.58,0-.88.23-.87.84,0,1.78,0,3.57,0,5.36,0,.53.23.8.8.79C285,132.23,286,131.45,286.11,128.77Z" transform="translate(-55.73 -44.02)"/><path class="cls-2" d="M156.27,144.74c-1.22,0-2.33,0-3.43,0-.24,0-.53-.54-.62-.88-.75-2.73-1.44-5.48-2.16-8.22-.13-.52-.23-1-1-1-1.14,0-1.27.07-1.28,1.25,0,2.6,0,5.21,0,7.81,0,.91-.29,1.15-1.17,1.14-2.64,0-2.64,0-2.64-2.67,0-6.06,0-12.12,0-18.18,0-.89.18-1.27,1.17-1.21,2.08.12,4.19,0,6.27.23,2.9.31,4.36,2,4.45,4.94a9.74,9.74,0,0,1-.28,3.2,5.73,5.73,0,0,1-1.61,2.35,1.2,1.2,0,0,0-.46,1.44c.84,2.88,1.64,5.77,2.45,8.67C156.07,143.88,156.14,144.24,156.27,144.74Zm-8.49-16c0,.88,0,1.76,0,2.63a1,1,0,0,0,.43.79,4.13,4.13,0,0,0,3.38-.9,5.17,5.17,0,0,0,.29-4.74c-.73-1.33-2-1.24-3.29-1.29-.61,0-.84.3-.84.88C147.79,127,147.79,127.91,147.78,128.79Z" transform="translate(-55.73 -44.02)"/><path class="cls-2" d="M217.05,133.92c1,3.62,2,7.15,3,10.83a33.78,33.78,0,0,1-3.38-.05c-.27,0-.61-.55-.7-.9-.77-2.76-1.54-5.53-2.19-8.32-.23-1-.82-.89-1.5-.89-.87,0-.72.64-.73,1.16,0,2.67,0,5.34,0,8,0,.74-.2,1-1,1-2.83,0-2.83,0-2.83-2.81,0-6,0-12,0-18,0-1,.3-1.35,1.32-1.28,2.06.12,4.13,0,6.17.24,2.84.3,4.4,2.13,4.42,5a16.45,16.45,0,0,1-.28,3.21A4,4,0,0,1,217.05,133.92Zm-5.47-5.16c0,.88,0,1.76,0,2.64a1.09,1.09,0,0,0,.4.8,3.88,3.88,0,0,0,3.44-1,4.72,4.72,0,0,0,.24-4.64c-.62-1.38-2-1.27-3.26-1.32-.59,0-.86.24-.84.85C211.6,127,211.58,127.89,211.58,128.76Z" transform="translate(-55.73 -44.02)"/><path class="cls-2" d="M141.51,98.41V97.35c0-3.32,0-6.64,0-10,0-.86.28-1.11,1.11-1.09,2.46.08,2-.28,2,2q0,9.39,0,18.8c0,.43.32,1.21-.5,1.18s-1.84.56-2.36-.72c-1.46-3.64-3-7.25-4.49-10.88-.17-.41-.36-.81-.54-1.22l-.3.07c0,.39-.06.77-.06,1.15,0,3.49,0,7,0,10.47,0,1-.3,1.22-1.22,1.19-2.3-.09-1.95.26-1.95-1.94,0-6.33,0-12.67,0-19,0-.91.27-1.1,1.15-1.16a1.87,1.87,0,0,1,2.14,1.43c1.33,3.29,2.79,6.54,4.2,9.79.14.33.32.65.48,1Z" transform="translate(-55.73 -44.02)"/><path class="cls-2" d="M233.67,98.4V97.33c0-3.32,0-6.64,0-10,0-.76.15-1.1,1-1.07,2.53.09,2.12-.31,2.12,2.07q0,9.34,0,18.7c0,.45.36,1.26-.53,1.25s-1.77.49-2.28-.82c-1.43-3.65-3-7.25-4.5-10.87-.15-.35-.32-.7-.48-1l-.26,0c0,.35-.06.69-.06,1,0,3.55,0,7.11,0,10.67,0,.78-.21,1.07-1,1-2.51-.08-2.14.34-2.15-2.15q0-9.3,0-18.59c0-.46-.33-1.15.53-1.31,1.34-.24,2.05,0,2.41.81,1.49,3.45,3,6.89,4.47,10.33.14.34.31.66.46,1Z" transform="translate(-55.73 -44.02)"/><path class="cls-2" d="M234.55,131.6c0,2.4,0,4.81,0,7.21a9.94,9.94,0,0,1-.38,2.49,4.51,4.51,0,0,1-4.51,3.66,16.19,16.19,0,0,1-2.31,0,4.8,4.8,0,0,1-4.83-4.68,32,32,0,0,1-.2-3.53c0-4.34,0-8.67,0-13,0-.81.24-1,1-1,2.69,0,2.69,0,2.69,2.72q0,6.45,0,12.9a11.34,11.34,0,0,0,.22,2,2.23,2.23,0,0,0,2.19,1.9,2.09,2.09,0,0,0,2.19-1.85,8.7,8.7,0,0,0,.2-1.9c0-4.91,0-9.82,0-14.73,0-.78.19-1.06,1-1.05,2.71,0,2.71,0,2.71,2.69v6.2Z" transform="translate(-55.73 -44.02)"/><path class="cls-2" d="M151.59,58.2c0,2.91,0,5.82,0,8.73A2.34,2.34,0,0,0,153,69.21c1.46.61,2.86-.27,3.15-2a16.25,16.25,0,0,0,.18-2.32c0-4.6,0-9.21,0-13.82,0-1,.32-1.21,1.23-1.2,2.56,0,2.56,0,2.56,2.57,0,3.86,0,7.72,0,11.58a24.79,24.79,0,0,1-.4,4,4.59,4.59,0,0,1-4.2,4,11.35,11.35,0,0,1-3.24,0c-2.74-.44-4.23-2.22-4.38-5.15-.12-2.29-.17-4.59-.2-6.89,0-3.05,0-6.1,0-9.15,0-.74.2-1,1-1,2.81,0,2.81-.07,2.81,2.74V58.2Z" transform="translate(-55.73 -44.02)"/><path class="cls-2" d="M274.8,131.65c0,2.68.06,5.35,0,8s-1.47,4.68-3.9,5.13a12,12,0,0,1-4.19,0c-2.4-.42-3.85-2.24-3.92-4.88-.14-5.48-.15-11-.23-16.44,0-.57.21-.75.77-.78,3-.14,3-.16,3,2.76,0,4,0,7.92,0,11.88a15.91,15.91,0,0,0,.39,3.3,2.16,2.16,0,0,0,4.17,0,13.46,13.46,0,0,0,.36-2.9c0-4.6.05-9.21,0-13.81,0-1,.31-1.26,1.27-1.24,2.37.06,2.37,0,2.37,2.35v6.6Z" transform="translate(-55.73 -44.02)"/><path class="cls-2" d="M192.86,97.25c0,2-.1,3.94,0,5.89a3.6,3.6,0,0,0,1,2.29,2.08,2.08,0,0,0,3.37-1.64c.07-1,0-1.9,0-2.84,0-.56.17-.81.75-.79,3.66.11,2.95-.67,2.95,2.83,0,3.65-1.95,5.54-5.6,5.61-4.17.09-6.38-2-6.43-6.21,0-3.32,0-6.63,0-10a9,9,0,0,1,.29-2.2,4.87,4.87,0,0,1,5-4.13,12.91,12.91,0,0,1,2.64.08A4.81,4.81,0,0,1,201,91c0,.1,0,.2,0,.31-.08,3.44.7,2.7-3,2.75-.23,0-.64-.43-.67-.69-.09-.8,0-1.62,0-2.43a1.94,1.94,0,0,0-1.74-2.13A2.1,2.1,0,0,0,193,90.37a4.68,4.68,0,0,0-.16,1.3c0,1.86,0,3.72,0,5.58Z" transform="translate(-55.73 -44.02)"/><path class="cls-2" d="M237,133.71c.1-2.23,0-4.47.34-6.68.4-3,2.35-4.49,5.32-4.52a12.76,12.76,0,0,1,2.23.07,4.81,4.81,0,0,1,4.25,4.82,13.15,13.15,0,0,1,0,2.43c0,.26-.45.49-.7.73h-.09c-2.87.17-2.87.17-2.9-2.72,0-1.66-.56-2.43-1.82-2.59-1.53-.19-2.59.78-2.6,2.5,0,3.28,0,6.57,0,9.86a16.72,16.72,0,0,0,.16,2.92,2,2,0,0,0,2.45,1.71,2,2,0,0,0,1.81-2.2c0-.85,0-1.7,0-2.54,0-.56.19-.84.76-.8a1.47,1.47,0,0,0,.21,0c3.32.08,2.83-.57,2.72,2.75-.14,4.2-2.47,5.79-6.53,5.58-3.75-.2-5.4-2.69-5.49-6.23,0-1.7,0-3.39,0-5.08Z" transform="translate(-55.73 -44.02)"/><path class="cls-2" d="M187.24,108.35a24.17,24.17,0,0,1-2.83,0c-.28,0-.65-.51-.73-.84-.27-1.15-.46-2.32-.62-3.48-.08-.56-.32-.76-.86-.74-.85,0-1.7,0-2.54,0-.62,0-.83.25-.92.79-.17,1.1-.38,2.19-.55,3.29-.12.73-.39,1.14-1.24,1.06a23.93,23.93,0,0,0-2.56,0c.34-1.77.63-3.42,1-5,1.06-5.19,2.17-10.37,3.16-15.57.22-1.1.57-1.5,1.74-1.45,2.63.09,2.66,0,3.17,2.54,1.31,6.38,2.59,12.76,3.88,19.14A1.84,1.84,0,0,1,187.24,108.35Zm-6.18-16.43-.35,0c-.46,2.9-.92,5.8-1.38,8.73h3.17C182,97.7,181.53,94.81,181.06,91.92Z" transform="translate(-55.73 -44.02)"/><path class="cls-2" d="M297.92,122.73c2.4,0,1.88-.3,2.33,1.9,1.31,6.41,2.59,12.82,3.92,19.22.15.73,0,.92-.7.91-3.32-.09-2.55.56-3.12-2.62-.44-2.49-.4-2.51-2.94-2.49-1.89,0-1.44-.24-1.85,1.61-.19.88-.3,1.79-.45,2.69-.08.53-.31.85-.93.81a19.64,19.64,0,0,0-2,0c-.68,0-.79-.26-.66-.88,1.36-6.64,2.72-13.27,4-19.92.2-1,.62-1.4,1.6-1.24A5.46,5.46,0,0,0,297.92,122.73Zm-1.64,14.36h3.17c-.49-3-.95-5.87-1.42-8.75h-.33C297.23,131.22,296.76,134.1,296.28,137.09Z" transform="translate(-55.73 -44.02)"/><path class="cls-2" d="M164.09,122.73c2,0,2,0,2.39,1.92,1.31,6.41,2.6,12.82,3.93,19.23.15.75-.1.92-.75.87h-.41c-2.81,0-2.05.38-2.66-2.23-.21-.92-.09-2.18-.65-2.66s-1.8-.14-2.74-.22-1.24.13-1.31,1.05-.41,2-.51,3c-.09.79-.37,1.1-1.21,1.09-2.59,0-2.62,0-2.12-2.49,1.23-6.12,2.51-12.22,3.72-18.34.18-1,.52-1.39,1.51-1.22A4.37,4.37,0,0,0,164.09,122.73Zm1.59,14.38c-.49-3-1-5.89-1.42-8.76l-.32,0c-.48,2.9-.95,5.8-1.44,8.78Z" transform="translate(-55.73 -44.02)"/><path class="cls-2" d="M214.13,49.88c2,0,2,0,2.38,2,1.31,6.41,2.6,12.82,3.92,19.23.16.73-.09.93-.75.87-.14,0-.27,0-.41,0-2.77-.06-2.05.48-2.66-2.33-.16-.73-.21-1.48-.43-2.18-.09-.29-.49-.49-.77-.7-.06,0-.19,0-.3,0-3-.08-3-.08-3.53,2.92C211.2,72,211.2,72,208.9,72c-1.31,0-1.32,0-1.07-1.25,1.31-6.51,2.64-13,3.91-19.53.2-1.05.64-1.47,1.68-1.29A5.61,5.61,0,0,0,214.13,49.88Zm1.55,14.32c-.47-3-.94-5.85-1.41-8.75a1.36,1.36,0,0,0-.46.87c-.31,1.83-.63,3.65-.88,5.48-.39,2.79-1.17,2.59,2.24,2.54A2.91,2.91,0,0,0,215.68,64.2Z" transform="translate(-55.73 -44.02)"/><path class="cls-2" d="M194.23,128.28l-3.11.63c-.19-.8-.3-1.5-.51-2.17a1.85,1.85,0,0,0-2.16-1.41,1.91,1.91,0,0,0-1.71,2,3.42,3.42,0,0,0,1.19,2.89c1.45,1.33,3,2.59,4.35,4A7.2,7.2,0,0,1,194.5,141a5,5,0,0,1-5.68,4.07c-3.79-.37-5.34-2.08-5.71-5.95a.86.86,0,0,1,.45-.69c.87-.25,1.76-.4,2.75-.61a12.67,12.67,0,0,0,.26,1.45,8.38,8.38,0,0,0,.61,1.81,2,2,0,0,0,2.42,1,1.86,1.86,0,0,0,1.36-2,4.6,4.6,0,0,0-1.69-3.66c-1.15-1-2.33-2.07-3.51-3.08a6.76,6.76,0,0,1-2.65-4.73c-.28-3.32,1.42-5.89,5.07-6.08,4.15-.21,5.26,1.82,5.83,4.2C194.11,127.16,194.14,127.64,194.23,128.28Z" transform="translate(-55.73 -44.02)"/><path class="cls-2" d="M170.33,56c-.16-.71-.26-1.37-.45-2a1.92,1.92,0,0,0-2.24-1.56,2.1,2.1,0,0,0-1.74,2.37,4.18,4.18,0,0,0,1.54,2.87c1.17,1,2.36,2,3.51,3.08a7.84,7.84,0,0,1,2.84,6.84,5,5,0,0,1-4.56,4.53c-4.22.25-6.42-1.6-6.91-5.77-.06-.52.09-.85.63-1a.29.29,0,0,0,.1,0c.76-.13,1.64-.55,2.24-.3.42.18.45,1.28.64,2,.43,1.5,1.14,2.18,2.3,2.19a1.9,1.9,0,0,0,1.93-2.47,6.88,6.88,0,0,0-1.42-2.92,38.51,38.51,0,0,0-3.84-3.48,6.66,6.66,0,0,1-2.41-6.88,4.66,4.66,0,0,1,3.91-3.75,12.38,12.38,0,0,1,2.51-.06c3.15.19,4.22,2.75,4.45,5,.06.58-.21.79-.7.88Z" transform="translate(-55.73 -44.02)"/><path class="cls-2" d="M161.59,86.32a24.23,24.23,0,0,1,2.72,0,1,1,0,0,1,.7.72c.91,4.56,1.77,9.14,2.64,13.71a.77.77,0,0,0,.42.52c.24-1.3.5-2.59.73-3.89.62-3.45,1.24-6.9,1.83-10.36.09-.54.32-.76.86-.75s1.29,0,1.93,0,.81.18.69.78c-1.4,6.77-2.8,13.54-4.15,20.32-.16.79-.5,1-1.22,1-2.7,0-2.73,0-3.28-2.64q-1.89-9.17-3.74-18.34C161.66,87.1,161.64,86.79,161.59,86.32Z" transform="translate(-55.73 -44.02)"/><path class="cls-2" d="M172.47,133.68c0-3.31,0-6.63,0-10,0-.71.14-1,.94-1,2.41.05,4.81,0,7.21,0,.73,0,1,.27.92,1a4.38,4.38,0,0,0,0,.81c.09.79-.29,1-1,1-1.12-.05-2.24,0-3.35,0-.65,0-.94.19-.93.86,0,1.62,0,3.25,0,4.87,0,.66.32.9.94.89.81,0,1.63,0,2.44,0,.59,0,.9.18.84.82a3.66,3.66,0,0,0,0,.81c.08.68-.17,1-.9.95s-1.56,0-2.34,0-1,.23-1,.93q0,2.9,0,5.79c0,.7.29,1,1,.94,1.15,0,2.3,0,3.45,0,.83,0,1.1.28,1,1.06,0,.27.08.58,0,.8s-.42.65-.64.65c-2.6.05-5.21,0-7.82,0-.71,0-.72-.41-.72-.92C172.48,140.45,172.47,137.07,172.47,133.68Z" transform="translate(-55.73 -44.02)"/><path class="cls-2" d="M246.06,97.23c0-3.28,0-6.57,0-9.85,0-.87.28-1.1,1.11-1.08,2.33,0,4.67.06,7,0,.93,0,1,.46.93,1.13s.32,1.52-.92,1.46-2.24,0-3.35,0c-.72,0-1,.22-1,1,0,1.55,0,3.11,0,4.67,0,.68.19,1,.93,1s1.62,0,2.43,0c.64,0,.93.15.91.85-.05,2.2.21,1.84-1.81,1.86-2.45,0-2.45,0-2.45,2.5,0,1.32,0,2.64,0,4,0,.92.32,1.19,1.18,1.15,1.08,0,2.17,0,3.25,0s.88.76.91,1.39.11,1.22-.87,1.2q-3.66-.06-7.32,0c-.76,0-.9-.32-.89-1C246.07,104,246.06,100.62,246.06,97.23Z" transform="translate(-55.73 -44.02)"/><path class="cls-2" d="M133.23,133.73c0-3.28,0-6.57,0-9.85,0-1,.3-1.2,1.21-1.17,2.27.06,4.54,0,6.81,0,.71,0,1,.15,1,1,0,1.61,0,1.61-1.57,1.62-.88,0-1.76,0-2.64,0-.63,0-.92.2-.9.88,0,1.69,0,3.39,0,5.08,0,.62.23.85.84.83.81,0,1.62,0,2.43,0,.63,0,.87.22.81.83a3.73,3.73,0,0,1,0,1,1.19,1.19,0,0,1-.7.69,11.27,11.27,0,0,1-1.93,0c-1.41,0-1.41,0-1.41,1.37,0,2.57,0,5.15,0,7.72,0,.79-.2,1.05-1,1.05-2.91,0-2.91,0-2.91-2.91Z" transform="translate(-55.73 -44.02)"/><path class="cls-2" d="M253.81,135.16c0-2.88,0-5.76,0-8.64,0-.82-.28-1.09-1.05-1a8.3,8.3,0,0,1-1.93,0,1.06,1.06,0,0,1-.68-.7c-.2-2-.18-2,1.82-2,2.75,0,5.49,0,8.23,0,.86,0,1.21.17,1.17,1.11-.07,1.66,0,1.66-1.63,1.66-2.45,0-2-.12-2,2.08q0,8,0,16.05c0,.87-.2,1.18-1.13,1.17-2.8,0-2.8,0-2.8-2.82Z" transform="translate(-55.73 -44.02)"/><path class="cls-2" d="M198.89,135.05c0-2.77,0-5.55,0-8.33,0-1-.35-1.35-1.3-1.25a8.49,8.49,0,0,1-1,0c-1.55,0-1.5,0-1.57-1.52-.05-1,.24-1.28,1.23-1.26,3,.07,6,0,8.94,0,.83,0,1.22.2,1.1,1.07a4.61,4.61,0,0,0,0,.91c0,.57-.2.81-.77.79s-1.22,0-1.83,0-1,.27-1,1c0,1.8,0,3.59,0,5.39,0,3.93,0,7.85,0,11.78,0,.83-.23,1.12-1.09,1.11-2.71,0-2.71,0-2.71-2.71Z" transform="translate(-55.73 -44.02)"/><path class="cls-2" d="M178.11,62.37c0-2.88,0-5.76,0-8.63,0-.81-.23-1.22-1.1-1.11a5.15,5.15,0,0,1-1.11,0c-.52-.06-1.39,0-1.47-.27a5.22,5.22,0,0,1-.07-2.09c0-.16.52-.37.8-.37,3.18,0,6.36,0,9.54,0,.6,0,.85.2.84.83,0,2.34.19,1.88-1.84,1.92s-1.81-.25-1.81,1.79c0,5.48,0,11,0,16.45,0,.82-.21,1.11-1.07,1.1-2.73,0-2.73,0-2.73-2.7Z" transform="translate(-55.73 -44.02)"/><path class="cls-2" d="M111.89,133.73c0-3.32,0-6.64,0-10,0-.76.16-1.07,1-1.07,2.91,0,2.91,0,2.91,2.91,0,6,0,11.93,0,17.89,0,.94-.19,1.3-1.21,1.28-2.71-.06-2.71,0-2.71-2.72Z" transform="translate(-55.73 -44.02)"/><path class="cls-2" d="M207.49,97.36c0,3.31,0,6.63,0,9.94,0,.87-.28,1.15-1.1,1.07a10,10,0,0,0-1.73,0c-.81.07-1.12-.18-1.11-1.06q0-10,0-20c0-.83.28-1,1.05-1,2.87,0,2.87,0,2.87,2.84Z" transform="translate(-55.73 -44.02)"/><path class="cls-2" d="M111.89,97.29c0-3.32,0-6.63,0-10,0-.8.23-1,1-1,2.88,0,2.88,0,2.88,2.82,0,6,0,12.11,0,18.16,0,.84-.23,1.17-1.08,1.09a11.31,11.31,0,0,0-1.93,0c-.71,0-.93-.23-.92-.94C111.91,104.05,111.89,100.67,111.89,97.29Z" transform="translate(-55.73 -44.02)"/><path class="cls-2" d="M205.66,61c0,3.28,0,6.56,0,9.84,0,.8-.15,1.14-1.05,1.13-2.87,0-2.87,0-2.87-2.84,0-6,0-12,0-18.07,0-1,.29-1.21,1.2-1.2,2.72,0,2.72,0,2.72,2.71Z" transform="translate(-55.73 -44.02)"/><path class="cls-2" d="M115.79,61c0,3.31,0,6.63,0,9.95,0,.77-.17,1.06-1,1.06-2.91,0-2.91,0-2.91-2.91,0-6,0-12,0-18,0-.89.2-1.24,1.17-1.23,2.75,0,2.75,0,2.75,2.77Z" transform="translate(-55.73 -44.02)"/><path class="cls-2" d="M223.8,72.14c-.1-.08-.13-.11-.16-.11-.57-.12-1.58-.13-1.63-.36a11,11,0,0,1-.09-2.82c0-.14.36-.36.58-.39,2.81-.36,2.91-.28,2.88,2.47a6.47,6.47,0,0,1-.25,2.39,5.12,5.12,0,0,1-1.6,2c-.85.62-1.1.43-1.38-.73C223,74,223.88,73.4,223.8,72.14Z" transform="translate(-55.73 -44.02)"/><path class="cls-2" d="M215.61,84c.46-1.55.9-3.06,1.39-4.56a.88.88,0,0,1,.64-.48c.9-.06,1.81,0,3,0-.41.7-.71,1.24-1,1.77a20,20,0,0,0-1.28,2.18C217.78,84.12,216.94,84.39,215.61,84Z" transform="translate(-55.73 -44.02)"/><path class="cls-3" d="M170.15,576.68l.67.66a3.41,3.41,0,0,1,.05.9q0,15.12,0,30.22c0,.32.12.67-.12,1l-.38.39c-.23.21-.52.12-.78.12-4,0-8,0-12,0-.77,0-1-.2-1-1,0-5.93,0-11.86,0-17.79a2.14,2.14,0,0,0-.1-1.09,1.45,1.45,0,0,0-1.46-.82c-3.66,0-7.32,0-11,0-.58,0-1.11,0-1.21.75a2.57,2.57,0,0,0-.08,1.1c0,5.91,0,11.83,0,17.74,0,.83-.2,1.08-1.05,1.07-4.09-.08-8.18,0-12.26-.07-.47-.07-.59-.4-.61-.8s0-.94,0-1.42V578.16c0-.67,0-1.31.83-1.5a2.74,2.74,0,0,1,.81,0h38.72A2.28,2.28,0,0,1,170.15,576.68Z" transform="translate(-55.73 -44.02)"/><path class="cls-3" d="M82.15,366.72a38.69,38.69,0,0,0,9.31-5.23,4.42,4.42,0,0,1,3.08-1h5.59c1.52,0,1.31-.15,1.31,1.27q0,28.51,0,57c-1.89.17-3.78,0-5.68.07-1.59,0-3.18,0-4.77,0-.68,0-.93-.21-.84-.87a5.58,5.58,0,0,0,0-.71q0-21.93,0-43.86c0-.35.33-.89-.34-1.06L82,375.24c-.25-.21-.14-.5-.14-.76q0-3.39,0-6.78C81.84,367.35,81.71,366.94,82.15,366.72Z" transform="translate(-55.73 -44.02)"/><path class="cls-3" d="M114.66,418.78q0-22.8,0-45.58c0-.82,0-1.1-1-.67-2.39,1-4.87,1.82-7.32,2.71-.25-.21-.14-.5-.14-.76q0-3.39,0-6.78c0-.35-.12-.76.32-1a34.82,34.82,0,0,0,10.25-5.94,1.49,1.49,0,0,1,1.14-.29c2.3,0,4.6,0,6.91,0,.79,0,1,.19,1,1,0,9,0,18.08,0,27.12v30.18c-2.55.17-5.1,0-7.66.06A24.34,24.34,0,0,1,114.66,418.78Z" transform="translate(-55.73 -44.02)"/><path class="cls-3" d="M129.71,573.08a1.16,1.16,0,0,1-.36-1.8c3.13-4.06,6.27-8.11,9.37-12.18,2.88-3.78,5.73-7.59,8.59-11.39.47-.63,1-1.26,1.44-1.9a1.2,1.2,0,0,1,2.09-.06c1.88,2.41,3.74,4.84,5.61,7.26q5.49,7.1,11,14.2c1.09,1.41,2.15,2.83,3.25,4.24.55.7.17,1.17-.34,1.63a2.28,2.28,0,0,1-.9.07H130.62A2.34,2.34,0,0,1,129.71,573.08Z" transform="translate(-55.73 -44.02)"/><path class="cls-3" d="M217,476.5c-.21-.22-.43-.44-.65-.65a2.31,2.31,0,0,0-.91-.07H178a3,3,0,0,0-.9.05c-1,.23-.8,1-.8,1.69V608.17c0,.31,0,.61,0,.91,0,.67.27.95,1,.95h38.2a1.46,1.46,0,0,0,1.48-.81,5.16,5.16,0,0,0,0-1.11q0-65.25,0-130.5A3.44,3.44,0,0,0,217,476.5Zm-15.47,17.38c2.64,0,5.28,0,7.92,0,.65,0,.91.22.9.89,0,1.52,0,3.05,0,4.57s0,2.91,0,4.36c0,.73-.21,1-1,1-2.6,0-5.21,0-7.81,0-.74,0-1-.24-1-1q0-4.41,0-8.83C200.46,494.14,200.74,493.87,201.48,493.88Zm8.81,50.8c0,1.49,0,3,0,4.47,0,.63-.2.91-.88.91-2.67,0-5.34,0-8,0-.64,0-.92-.25-.91-.9,0-3,0-6,0-9,0-.65.26-.9.91-.9q4,0,8,0c.65,0,.9.23.89.89C210.27,541.63,210.29,543.16,210.29,544.68Zm-9.82-27.12c0-.72.24-1,1-1q4,0,7.92,0c.66,0,.92.24.9.89,0,1.52,0,3.05,0,4.57s0,3,0,4.47c0,.64-.2.9-.88.89-2.67,0-5.35,0-8,0-.72,0-.93-.28-.93-1C200.5,523.45,200.49,520.5,200.47,517.56Zm1.08,44.3c2.58,0,5.15,0,7.72,0,.83,0,1,.31,1,1.08,0,1.45,0,2.91,0,4.37s0,2.91,0,4.36c0,.71-.16,1-1,1-2.64,0-5.28,0-7.92,0-.7,0-.95-.24-.95-1q0-4.41,0-8.83C200.46,562.11,200.77,561.85,201.55,561.86Zm-17.52-68h8c.65,0,.9.23.88.89,0,1.53,0,3.05,0,4.58s0,3,0,4.47c0,.66-.23.9-.89.89-2.67,0-5.35,0-8,0-.66,0-.9-.24-.9-.9q0-4.51,0-9C183.13,494.12,183.38,493.88,184,493.89Zm8.9,96.07c0,1.52,0,3,0,4.56,0,.66-.25.9-.9.9-2.67,0-5.34,0-8,0-.64,0-.9-.25-.9-.91q0-4.51,0-9c0-.63.19-.94.86-.93q4.06,0,8.11,0c.69,0,.85.32.84.94C192.91,587,192.93,588.47,192.93,590Zm0-22.58c0,1.49,0,3,0,4.47,0,.61-.21.84-.83.83q-4.06,0-8.12,0c-.7,0-.86-.29-.86-.92q0-4.47,0-8.94c0-.69.22-1,.94-1q4,0,7.92,0c.7,0,1,.23.95.94C192.9,564.33,192.93,565.85,192.93,567.38Zm0-22.79c0,1.52,0,3,0,4.57,0,.67-.23.9-.89.9-2.67,0-5.35,0-8,0-.66,0-.9-.24-.9-.9q0-4.53,0-9c0-.67.25-.9.9-.9,2.68,0,5.35,0,8,0,.65,0,.9.23.88.9C192.9,541.61,192.93,543.1,192.93,544.59ZM192,527.36c-2.64,0-5.29,0-7.93,0-.71,0-.94-.24-.93-.94q0-4.47,0-8.94c0-.71.26-1,1-.94q4,0,7.92,0c.72,0,1,.27.93,1,0,1.49,0,3,0,4.47s0,2.91,0,4.37C193,527.05,192.78,527.37,192,527.36ZM210.29,590c0,1.45,0,2.91,0,4.37,0,.72-.22,1-1,1-2.61,0-5.22,0-7.82,0-.74,0-1-.29-1-1,0-2.94,0-5.89,0-8.83,0-.76.29-1,1-1,2.61,0,5.21,0,7.82,0,.75,0,1,.26,1,1C210.26,587.05,210.29,588.54,210.29,590Z" transform="translate(-55.73 -44.02)"/><path class="cls-3" d="M260.86,500.44c-3,3.79-6,7.56-9,11.36-3.37,4.3-6.7,8.63-10.08,12.92-2.93,3.72-5.91,7.39-8.85,11.1-3.23,4.08-6.42,8.19-9.67,12.25a4.63,4.63,0,0,0-1.08,3.07q.08,28.56,0,57.11c0,.31,0,.61,0,.92,0,.72.26,1.07,1.09,1.07q18.85,0,37.7,0c1.6,0,1.8-.2,1.8-1.81V502a2.61,2.61,0,0,0-.21-1.38A1.06,1.06,0,0,0,260.86,500.44Zm-20.18,67.12c0,.91-.42,1.27-1.31,1.26-1.82,0-3.65,0-5.48,0s-3.52,0-5.28,0c-1,0-1.34-.41-1.33-1.34,0-2.13,0-4.27,0-6.4,0-.89.33-1.29,1.26-1.28,3.62,0,7.24,0,10.86,0,.92,0,1.28.38,1.28,1.26Q240.65,564.32,240.68,567.56Zm0,13.19c0,1.11-.29,1.41-1.36,1.42-3.55,0-7.11,0-10.66,0-.93,0-1.38-.38-1.37-1.33,0-2.13,0-4.27,0-6.4,0-1.06.32-1.36,1.42-1.37h10.56c1.09,0,1.4.3,1.4,1.37C240.68,576.56,240.68,578.65,240.67,580.75Zm0,13.42c0,.89-.36,1.32-1.26,1.32H228.56c-.88,0-1.29-.38-1.28-1.29,0-2.17,0-4.33,0-6.5,0-.9.42-1.28,1.31-1.27,1.79,0,3.59,0,5.38,0s3.59,0,5.38,0c.94,0,1.34.4,1.33,1.35C240.65,589.91,240.66,592,240.68,594.17Zm0-47.75c0,2.54,0,5.07,0,7.61,0,1.16-.3,1.5-1.4,1.5q-5.28,0-10.56,0c-1.11,0-1.35-.35-1.44-1.48a4.16,4.16,0,0,1,1-3.15c3.43-4.23,6.82-8.5,10.21-12.76.38-.47.79-.87,1.45-.65s.71.81.71,1.41C240.7,541.41,240.7,543.91,240.7,546.42Zm4.24,1.21c0-.88.42-1.21,1.24-1.21h10.88c.86,0,1.22.39,1.21,1.24q0,3.3,0,6.61c0,.88-.4,1.19-1.24,1.18-1.83,0-3.66,0-5.49,0s-3.59,0-5.39,0c-.86,0-1.23-.35-1.22-1.21Q245,550.92,244.94,547.63ZM247,526.72q4.62-5.73,9.22-11.47a1.16,1.16,0,0,1,1.39-.53c.57.22.67.71.67,1.25,0,1.89,0,3.79,0,5.68s0,3.72,0,5.58c0,1.2-.32,1.5-1.51,1.5H248c-.57,0-1.12,0-1.37-.63A1.31,1.31,0,0,1,247,526.72Zm-2.06,7.66c0-.91.37-1.28,1.27-1.26,1.83,0,3.66,0,5.48,0s3.59,0,5.38,0c.86,0,1.22.35,1.21,1.21q0,3.3,0,6.59c0,.85-.35,1.24-1.22,1.24q-5.42,0-10.85,0c-.9,0-1.28-.38-1.27-1.29C245,538.71,245,536.54,244.93,534.38Zm13.33,59.72c0,1.16-.2,1.38-1.35,1.39H246.44c-1.3,0-1.49-.21-1.5-1.46,0-2.1,0-4.2,0-6.3,0-.9.36-1.3,1.27-1.3q5.38,0,10.77,0c1,0,1.32.43,1.3,1.36C258.24,589.89,258.27,592,258.26,594.1Zm0-13.29c0,1.11-.25,1.35-1.39,1.36H246.31c-1.11,0-1.36-.27-1.37-1.38v-6.3c0-1.14.25-1.4,1.35-1.4h10.65c.94,0,1.35.38,1.34,1.34C258.24,576.55,258.27,578.68,258.26,580.81Zm0-13.29c0,.9-.35,1.3-1.26,1.3q-5.38,0-10.77,0c-.88,0-1.32-.33-1.31-1.26q0-3.24,0-6.5c0-.91.36-1.28,1.27-1.26,1.83,0,3.66,0,5.49,0s3.52,0,5.28,0c1,0,1.32.4,1.31,1.33C258.24,563.26,258.25,565.39,258.27,567.52Z" transform="translate(-55.73 -44.02)"/><path class="cls-3" d="M308.9,569.87c0-.29.1-.61-.12-.88l-.39-.38c-.3-.24-.65-.12-1-.12H268.86a2.72,2.72,0,0,0-.9.06c-.6.07-.6.49-.6,1,0,2.91,0,5.83,0,8.74q0,15.45,0,30.89c0,.48-.17,1.06.59,1.17a1.72,1.72,0,0,0,.6.05h39.06c.26,0,.54.09.77-.12l.39-.39c.22-.27.12-.58.12-.88Q308.92,589.42,308.9,569.87Zm-22.66,24.22c0,1.13-.25,1.39-1.37,1.4h-5.49c-1.83,0-3.66,0-5.49,0-.92,0-1.37-.36-1.36-1.33q0-3.2,0-6.4c0-1,.45-1.31,1.37-1.31,3.62,0,7.25,0,10.87,0,1.16,0,1.45.3,1.46,1.43C286.25,590,286.25,592,286.24,594.09Zm-1.32-11.85q-5.54,0-11.07,0c-.89,0-1.32-.36-1.31-1.27q0-3.26,0-6.5c0-.92.44-1.26,1.32-1.25,1.86,0,3.72,0,5.59,0h5.38c1.12,0,1.4.26,1.41,1.35,0,2.1,0,4.2,0,6.3C286.26,581.82,285.87,582.24,284.92,582.24Zm5.63-7.6c0-1.13.31-1.41,1.48-1.41H302.9c1.1,0,1.39.29,1.4,1.38q0,3.09,0,6.2c0,1.14-.29,1.41-1.46,1.42H292c-1.07,0-1.41-.33-1.42-1.39C290.53,578.77,290.53,576.71,290.55,574.64Zm13.75,19.48c0,1.09-.28,1.36-1.42,1.37H297.4c-1.83,0-3.66,0-5.49,0-1,0-1.37-.44-1.37-1.35,0-2.13,0-4.26,0-6.4,0-.86.43-1.29,1.33-1.29q5.53,0,11.08,0c.94,0,1.35.43,1.35,1.36C304.29,589.92,304.31,592,304.3,594.12Z" transform="translate(-55.73 -44.02)"/><path class="cls-3" d="M268.58,565.34q19.49,0,39,0c.9,0,1.27-.33,1.26-1.26,0-2.36,0-4.73,0-7.1a1.28,1.28,0,0,0-.64-1.26,2,2,0,0,0-.6-.05H268.66a1.71,1.71,0,0,0-.71.07c-.62.06-.59.5-.59,1,0,2.47,0,4.94,0,7.41C267.34,565,267.64,565.35,268.58,565.34Z" transform="translate(-55.73 -44.02)"/><path class="cls-3" d="M180.89,396.9c-.81,0-1.62.06-2.41,0s-1.2.15-1.19,1l-.06,6.28a8.36,8.36,0,0,0,0,1.5c-.06,1.6.12,3.2-.1,4.8,0,2,0,4.06-.05,6.1-.26,2.76-.26,2.73,2.3,2.74.7,0,.91-.18.91-.89a32.32,32.32,0,0,1,.08-4.72q0-3.15,0-6.3c.13-.77,0-1.55.11-2.23a1.21,1.21,0,0,0,.22.42c.53,2.58,1.05,5.17,1.59,7.74.42,2,.88,3.95,1.31,5.93.64.09,1.28,0,1.92,0a.62.62,0,0,0,.7-.54,45.57,45.57,0,0,1,1-5.28c.53-2.57,1.1-5.13,1.66-7.7.2-.21.15-.52.28-.77a4.3,4.3,0,0,0,0,1.56l.07,5.88a2.36,2.36,0,0,1,.09,1.09c0,1.61-.07,3.22.06,4.83l0,.81a2.29,2.29,0,0,0,1.19.1c2.08,0,2.08,0,1.91-2.11l-.06-6.08a2.07,2.07,0,0,1-.09-1c0-1.64.05-3.28,0-4.92q0-3-.07-6.08a3,3,0,0,1-.08-1.4c.05-.65-.21-.81-.82-.78-1.11.05-2.22,0-3.33,0-.07.1-.19.2-.21.32-.26,1.93-.76,3.81-1.16,5.71q-.87,4.24-1.75,8.49c-.07.12-.09.32-.31.19-.56-2.64-1.16-5.27-1.67-7.92a64.59,64.59,0,0,1-1.25-6.46C181.58,396.82,181.21,396.91,180.89,396.9Z" transform="translate(-55.73 -44.02)"/><path class="cls-3" d="M238.58,443.62c1.87-.38,2.55-1.64,3-3.13.14-.33-.05-.72.14-1.05v-.92c-.18-.33,0-.71-.13-1a4.52,4.52,0,0,0-2.63-3.46,12.31,12.31,0,0,0-2.52-.66c-2-.13-4,0-6-.07-.72,0-.84.26-.82.88,0,1.59,0,3.18,0,4.77v15.85c0,.42-.12.89.61.88,2.4-.06,4.8.06,7.2-.07,3-.58,4.48-2.21,4.84-5.55a7.77,7.77,0,0,0-.56-4A4.6,4.6,0,0,0,238.58,443.62Zm-4.24-7.39a1.61,1.61,0,0,0,.31,0c3.56-.18,3.94,2.13,3,4.87-.39,1.19-1.55,1.27-2.63,1.25-1.5,0-1.28.17-1.3-1.29,0-.61,0-1.22,0-1.82,0-.81,0-1.63,0-2.44C233.74,436.37,233.91,436.19,234.34,436.23Zm3.94,14a2.44,2.44,0,0,1-2.57,2.46c-.44,0-.88,0-1.32,0s-.65-.17-.64-.65c0-1,0-2,0-3s0-2,0-3c0-.48.16-.63.64-.66,2.81-.18,3.93.86,4,3.69C238.34,449.44,238.32,449.85,238.28,450.25Z" transform="translate(-55.73 -44.02)"/><path class="cls-3" d="M222.28,363.84c-.79-2.13-2.52-2.91-4.56-3.28-.41-.14-.86.06-1.26-.14h-5.81c-.24.3-.12.65-.13,1,0,1.86,0,3.72,0,5.58v15c0,.43-.12.9.61.88,1.85-.06,3.72.06,5.57-.07a6.85,6.85,0,0,0,4.27-1.53c1.52-1.43,1.74-3.3,1.81-5.17.1-3.07.06-6.15,0-9.22A9.39,9.39,0,0,0,222.28,363.84Zm-3.71,13.24c0,2.42-1.2,2.9-3.45,2.85-.64,0-.46-.47-.46-.8q0-3.7,0-7.41c0-2.5,0-5,0-7.51,0-.63.18-.8.8-.8,2.43,0,3.1.58,3.12,3C218.6,370,218.58,373.53,218.57,377.08Z" transform="translate(-55.73 -44.02)"/><path class="cls-3" d="M236,419.21a8.08,8.08,0,0,0,2.89-.83c1.85-1,2.32-2.84,2.67-4.72.07-3.86.09-7.71,0-11.57a5.2,5.2,0,0,1-.22-.77c-.54-3.26-2.67-4-5.12-4.31-1.95-.24-3.92-.06-5.87-.15-.87,0-1,.25-1,1.07,0,7.08,0,14.15,0,21.22A57.44,57.44,0,0,0,236,419.21ZM233.42,408c0-2.43,0-4.86,0-7.3,0-.68.21-.84.86-.84,2.39,0,3.15.64,3.18,3,0,3.42,0,6.83,0,10.25a6.8,6.8,0,0,1-.11,1,2.71,2.71,0,0,1-3.58,2.22c-.51-.15-.32-.54-.33-.83C233.41,413,233.42,410.48,233.42,408Z" transform="translate(-55.73 -44.02)"/><path class="cls-3" d="M183.48,367.88c0,4.71,0,9.41,0,14.11,0,.62.09.93.82.89,1.79-.07,3.58.05,5.37-.06l.8-.07c2.75-.27,4.32-1.55,5-4.13a19.24,19.24,0,0,0,.35-2.17q.13-5,0-9.93c-.37-3.91-1.54-5.26-5.14-6-.41-.12-.85.08-1.24-.13h-5.81c-.28.28-.14.64-.14,1C183.47,363.55,183.48,365.72,183.48,367.88Zm4.16,3.73c0-2.47,0-4.93,0-7.4,0-.63.18-.86.8-.79.43.05.88,0,1.31.07a1.85,1.85,0,0,1,1.76,1.79,87.56,87.56,0,0,1,0,12.65c-.11,1.46-2.26,2.57-3.61,2-.41-.18-.24-.53-.24-.79Q187.64,375.36,187.64,371.61Z" transform="translate(-55.73 -44.02)"/><path class="cls-3" d="M175.23,410.36c-.06-2.94.28-5.89-.21-8.8-.36-2.23-1.42-4-3.77-4.61a13.56,13.56,0,0,0-3.3-.35c-.32.22-.71,0-1,.16a6.08,6.08,0,0,0-2.75,1.27,6.42,6.42,0,0,0-1.79,4.47c-.06,3.72-.09,7.44,0,11.16,0,.27,0,.53.09.8.39,2.52,1.63,4.63,4.63,5,.33.14.71-.07,1,.15h1.35c.33-.19.72,0,1.06-.15a5.46,5.46,0,0,0,4.51-5.11A24.66,24.66,0,0,0,175.23,410.36ZM171,414.28c-.07,1.63-1.09,2.34-2.67,2.1a1.73,1.73,0,0,1-1.55-1.39,6.5,6.5,0,0,1-.22-1.7c0-3.49,0-7,0-10.46a7.17,7.17,0,0,1,.12-1.31,1.94,1.94,0,0,1,2.23-1.84,1.92,1.92,0,0,1,2.08,2c.08,2.09,0,4.19,0,6.29h0C171,410.09,171.06,412.19,171,414.28Z" transform="translate(-55.73 -44.02)"/><path class="cls-3" d="M169.13,433.14a18.34,18.34,0,0,0-3.23,0c-1.55.34-3,.83-3.84,2.34a8,8,0,0,0-.89,3.2c-.09,3.85-.1,7.71,0,11.56,0,.17,0,.34.06.51a5.41,5.41,0,0,0,3.72,4.93,9,9,0,0,0,3.38.22c2.29-.18,4.15-1.09,5-3.38a9.2,9.2,0,0,0,.63-3.14c0-3.28.16-6.57,0-9.83C173.77,436,172.76,433.88,169.13,433.14Zm.62,17.53a2.11,2.11,0,0,1-2.93,2.08,1.76,1.76,0,0,1-1.3-1.29,7.07,7.07,0,0,1-.24-2c0-3.32,0-6.63,0-9.95a9.5,9.5,0,0,1,.08-1.31c.24-1.6.89-2.12,2.45-2,1.25.06,1.91.75,1.95,2.23.06,2,0,4.06,0,6.09h0C169.77,446.54,169.83,448.61,169.75,450.67Z" transform="translate(-55.73 -44.02)"/><path class="cls-3" d="M257.07,396.89c-.72,0-.83.26-.82.88,0,1.73,0,3.46,0,5.18v15.44c0,.42-.12.9.61.88,2.06-.06,4.12.06,6.18-.07s4-1,4.88-3.14a11.69,11.69,0,0,0,.67-3.22c.08-3.31.09-6.62,0-9.93a8.12,8.12,0,0,0-1.1-3.81c-1-1.48-2.62-1.85-4.24-2.14C261.2,396.83,259.13,397,257.07,396.89Zm7.28,5.71a90.89,90.89,0,0,1-.06,11.67,2.76,2.76,0,0,1-3.64,2c-.38-.19-.22-.53-.22-.81q0-3.71,0-7.41c0-2.44,0-4.88,0-7.32,0-.69.13-.93.87-.92C263.59,399.85,264.24,400.31,264.35,402.6Z" transform="translate(-55.73 -44.02)"/><path class="cls-3" d="M220.9,433.44c-.51-.47-1.49-.07-2.26-.16s-1,.17-1,1c0,3.32,0,6.63,0,9.94,0,.31.26.76-.25,1l-5.13-11.77a8.06,8.06,0,0,0-1.9-.11c-.84-.12-1.07.2-1.06,1,0,6.76,0,13.51,0,20.27,0,.16,0,.33,0,.5,0,.39.13.57.53.55a25.38,25.38,0,0,0,3-.08V443.09l.14,0,5.16,12.42c.58.42,1.23.14,1.84.17,1.09.05,1.09,0,1.09-1.08,0-6.29,0-12.58,0-18.87C221.07,434.92,221.42,433.93,220.9,433.44Z" transform="translate(-55.73 -44.02)"/><path class="cls-3" d="M211.52,419.27c.88.11,1-.27,1-1.08,0-3.49,0-7,0-10.47,0-.31-.27-.75.25-1a1.76,1.76,0,0,0,.07.4q2.53,6,5.06,12a6,6,0,0,0,2.83,0V397a12.15,12.15,0,0,0-3.46,0v11.88a25.85,25.85,0,0,1-1.94-3.91c-1.09-2.65-2.38-5.22-3.35-7.93-.61-.26-1.27,0-1.89-.12-.85-.13-1.07.21-1.06,1.05,0,6.3,0,12.6,0,18.89,0,.77-.34,1.76.16,2.25S210.75,419.17,211.52,419.27Z" transform="translate(-55.73 -44.02)"/><path class="cls-3" d="M169.09,377.88c.52,3.45,1.77,4.71,4.74,5.14a16.6,16.6,0,0,0,2.82,0,5,5,0,0,0,4.52-4.21,17.16,17.16,0,0,0,.38-3.19c0-4.1,0-8.2,0-12.29,0-.94.43-2.16-.19-2.73s-1.81-.07-2.75-.17-1.06.28-1.05,1.09c0,4.5,0,9,0,13.51a19.11,19.11,0,0,1-.27,3.2,2.08,2.08,0,0,1-2.12,1.72c-1.34,0-2.14-1-2.16-2.74,0-4.64,0-9.28,0-13.92,0-.9.39-2.08-.16-2.65s-1.8-.09-2.73-.21-1.14.17-1.13,1.09c0,5.12,0,10.23,0,15.34C169.16,377.18,169,377.55,169.09,377.88Z" transform="translate(-55.73 -44.02)"/><path class="cls-3" d="M207.16,397a16.31,16.31,0,0,0-4.07,0c0,3.69,0,7.38,0,11.07a47.18,47.18,0,0,1-.16,6.06c-.2,1.36-1,2.29-2.17,2.28s-2-.78-2.14-2.28c0-.27,0-.54,0-.81-.21-2.12-.07-4.25-.09-6.37,0-3.08,0-6.15,0-9.23,0-.61-.16-.85-.8-.81-.87.05-1.75,0-2.63,0-.48,0-.65.15-.65.64,0,5,0,9.94.05,14.9.13,1,.07,1.93.29,2.89a5,5,0,0,0,4,4.05c.9.14,1.79.09,2.69.19.31-.21.69,0,1-.15a4.85,4.85,0,0,0,4.14-3.7c.14-.55.26-1.1.4-1.65s-.09-1,.15-1.42Z" transform="translate(-55.73 -44.02)"/><path class="cls-3" d="M161,410.83h-3.84c-.21.34-.08.72-.11,1.08a18.81,18.81,0,0,1-.09,2.81c-.17.8-.51,1.45-1.42,1.6a1.22,1.22,0,0,1-1,0,1.9,1.9,0,0,1-1.61-2.1c0-4.16,0-8.32,0-12.48a1.74,1.74,0,0,1,1.54-1.91,2,2,0,0,1,1.31,0c.62.28,1.16.63,1.2,1.41a13.09,13.09,0,0,1,.08,3c0,.63.21.82.82.79.87-.05,1.74,0,2.62,0,.46,0,.68-.13.65-.62-.05-.84,0-1.68-.06-2.52-.36-2.39-1.23-4.38-3.87-5a8.46,8.46,0,0,0-1.4-.16c-1.76-.11-3.53-.07-5,1.11s-1.76,2.66-2,4.29c-.14.39.08.83-.14,1.21v9.54c.22.38,0,.82.14,1.21a5.67,5.67,0,0,0,2.67,4.75,8.33,8.33,0,0,0,4.26.74c.33-.2.71,0,1-.15a5.46,5.46,0,0,0,2.51-1.19,7.16,7.16,0,0,0,1.82-4.14A13,13,0,0,0,161,410.83Z" transform="translate(-55.73 -44.02)"/><path class="cls-3" d="M148.62,376.45c.22.38,0,.83.15,1.22.47,3.66,2.18,5,4.94,5.35a15.17,15.17,0,0,0,2.61,0,7.21,7.21,0,0,0,2.25-.76c1.75-1,2.15-2.8,2.48-4.59.13-.9,0-1.81.07-2.72,0-.49-.18-.64-.65-.63-.87,0-1.75,0-2.62,0-.61,0-.82.15-.82.79a15.67,15.67,0,0,1-.08,3.21,1.91,1.91,0,0,1-1.34,1.61c-1.39.51-2.67-.5-2.72-2.16-.06-2.1,0-4.2,0-6.3s0-4.07,0-6.1a2,2,0,0,1,1.88-2.11,2,2,0,0,1,2.18,1.6,13.09,13.09,0,0,1,.08,3c0,.63.21.82.82.79.87,0,1.74,0,2.61,0,.47,0,.68-.12.66-.62-.05-.84,0-1.68-.05-2.51a19.74,19.74,0,0,0-.49-2.05c-.69-2.07-2.33-2.92-4.35-3.15-2.78-.32-6.42.1-7.24,4a5.74,5.74,0,0,1-.21,1.17c-.18.46.08,1-.16,1.42Z" transform="translate(-55.73 -44.02)"/><path class="cls-3" d="M200,382.76l.21-1.49c.52-3.72.52-3.72,3.75-3.62.42,0,.7,0,.77.61.17,1.44.5,2.86.77,4.28.06.09.09.21.19.23a19.48,19.48,0,0,0,3.5.07c.24,0,.28-.24.22-.46-.22-.92-.47-1.82-.65-2.74q-1.86-9.22-3.68-18.47c-.1-.47-.28-.78-.87-.75-1,.05-2,0-3,0-.34,0-.67,0-.75.48-.32,1.78-.65,3.55-1,5.32-.63,3.14-1.31,6.27-1.93,9.41-.48,2.37-.89,4.74-1.34,7.11A13.86,13.86,0,0,0,200,382.76Zm1.64-9.54c.34-2.24.72-4.46,1.08-6.69l.18,0q.48,2.9.95,5.77a10.67,10.67,0,0,0,.26,1.6c.34,1-.15,1.08-1,1.06C201.44,374.94,201.42,375,201.68,373.22Z" transform="translate(-55.73 -44.02)"/><path class="cls-3" d="M255.16,418.61c-1-4.95-2-9.89-3-14.85-.45-2.23-.84-4.48-1.25-6.72a14.5,14.5,0,0,0-4.46,0c-.54,2.55-1.09,5.1-1.61,7.65-.59,2.9-1.14,5.81-1.71,8.71-.37,1.9-.76,3.8-1.15,5.7a13.38,13.38,0,0,0,3.79.1c.13,0,.2-.16.26-.29.05-1.47.48-2.89.66-4.35.05-.41.35-.5.73-.49a18.26,18.26,0,0,0,2.22,0c.81-.07,1,.34,1.13,1a24.16,24.16,0,0,0,.77,4.14,14.12,14.12,0,0,0,3.84-.13A4.59,4.59,0,0,1,255.16,418.61Zm-6-7.18c-2.06,0-2,0-1.68-2s.62-3.8.93-5.7c0-.23,0-.49.31-.66.41,2.5.8,4.93,1.23,7.36C250.1,411.09,250.08,411.44,249.19,411.43Z" transform="translate(-55.73 -44.02)"/><path class="cls-3" d="M239.71,373.41c1.2,1.08,2.56,2,2.68,3.92.08,1.37-.2,2.2-1.28,2.54a2.11,2.11,0,0,1-2.41-1.52,6.23,6.23,0,0,1-.44-2.26c0-.42-.06-.65-.57-.52-.82.21-1.65.37-2.48.51-.41.07-.6.25-.56.68.23,2.89,1.15,5.72,4.84,6.26a12.17,12.17,0,0,0,2.63,0,5.35,5.35,0,0,0,4.31-4.52,5.78,5.78,0,0,0,0-1.81,10.94,10.94,0,0,0-1.13-3.07c-1.14-1.81-2.85-3-4.38-4.43-.94-.87-2.14-1.56-2.27-3.05a2.28,2.28,0,0,1,0-1.46,1.3,1.3,0,0,1,1.42-1.24,1.76,1.76,0,0,1,2,1.23,22.46,22.46,0,0,1,.46,2.34c.87-.18,1.68-.39,2.51-.49s1-.4.88-1.12c-.56-2.89-1.32-4.69-4.73-5.12a6.34,6.34,0,0,0-5,1.25c-1.94,1.6-2,5.68-.88,7.5S238.16,372,239.71,373.41Z" transform="translate(-55.73 -44.02)"/><path class="cls-3" d="M270.12,441.73c-1.19-1-2.2-2.1-2-3.85a1.65,1.65,0,0,1,1.36-1.64,1.74,1.74,0,0,1,2.1,1,4.27,4.27,0,0,1,.46,2c.09.42.3.68.78.49.75-.15,1.49-.32,2.25-.46.39-.07.6-.2.54-.65-.34-2.65-1.26-4.84-4.21-5.48a15.28,15.28,0,0,0-2.62,0,4.81,4.81,0,0,0-4.53,4.95,2.36,2.36,0,0,0,0,1,7.93,7.93,0,0,0,.56,2.6c1,1.93,2.86,3.06,4.38,4.5,1.05,1,2.24,1.84,2.71,3.29s.05,2.88-1.09,3.24-2.17-.42-2.67-2a.77.77,0,0,0-.08-.19c-.36-.64.32-1.76-.63-2a5.84,5.84,0,0,0-2.27.37c-.23,0-.46.14-.69.16s-.41.12-.36.37c.28,1.42.34,2.92,1.19,4.15a6.44,6.44,0,0,0,8.24,1.6c2.89-1.77,3.11-5.61,1.53-8.41C273.86,444.64,271.9,443.26,270.12,441.73Z" transform="translate(-55.73 -44.02)"/><path class="cls-3" d="M180.75,441.37a4,4,0,0,1-1.64-3.49,1.77,1.77,0,0,1,2.55-1.48c1.07.41,1.11,1.35,1.32,2.23.26.38-.14.9.28,1.25,1-.21,1.89-.44,2.85-.6.45-.08.53-.29.52-.68a5.43,5.43,0,0,0-4.29-5.47,15.17,15.17,0,0,0-2.61,0c-1.53.35-3,.79-3.78,2.34a7.08,7.08,0,0,0,1.86,8.68,47.81,47.81,0,0,1,4.17,3.76,4,4,0,0,1,1,1.91,2.8,2.8,0,0,1,0,1.52,1.63,1.63,0,0,1-1.61,1.38,1.85,1.85,0,0,1-1.92-1.18c-.13-.27-.2-.57-.35-.83-.4-.71.24-1.92-.63-2.2-.7-.23-1.63.22-2.45.37-.17,0-.32.1-.49.14a.3.3,0,0,0-.28.34,7.06,7.06,0,0,0,1.57,4.8c1.45,1.7,3.36,1.92,5.36,1.74a5.25,5.25,0,0,0,4.61-3.67,7.34,7.34,0,0,0-1.61-6.77A40.09,40.09,0,0,0,180.75,441.37Z" transform="translate(-55.73 -44.02)"/><path class="cls-3" d="M292.19,412.67a9.08,9.08,0,0,0-2.8-4.69l-3.85-3.43a4.09,4.09,0,0,1-1.3-2.54,2,2,0,0,1,1.41-2.17,1.88,1.88,0,0,1,2.24,1.22,14.71,14.71,0,0,1,.49,2.34c1.17-.35,2.45-.24,3.55-.89-.22-.32,0-.7-.16-1-.58-2.63-1.81-4.61-4.82-4.79-3.24-.2-5.91.82-6.44,4.39a8.6,8.6,0,0,0,0,2.21c.16.37.09.77.22,1.17.78,2.46,2.93,3.69,4.65,5.29,1.21,1.11,2.47,2.12,2.86,3.83a2.28,2.28,0,0,1-1.22,2.66,2,2,0,0,1-2.4-1.18,3.87,3.87,0,0,1-.43-1.95c-.25-.38.14-.91-.27-1.26l-3.4.8a2.36,2.36,0,0,0,0,1.21c0,.2.06.4.08.6A5.32,5.32,0,0,0,285,419.4c.33.16.71-.06,1,.16,3.44,0,5.37-1.52,6.12-4.27A13.49,13.49,0,0,0,292.19,412.67Z" transform="translate(-55.73 -44.02)"/><path class="cls-3" d="M159.87,448c-.82-2.5-2.86-4-4.7-5.64-1.1-1-2.53-1.75-2.7-3.47a1.71,1.71,0,0,1,0-1.26c.06-1,.69-1.32,1.53-1.42a1.63,1.63,0,0,1,1.89,1.14,23.65,23.65,0,0,1,.55,2.4l3.13-.48c.44-.24.34-.62.27-1-.48-2.43-1.37-4.53-4.12-5.13a14.09,14.09,0,0,0-2.83,0c-2.7.5-4.06,1.95-4.32,4.12a14.33,14.33,0,0,0,0,2.62,5.38,5.38,0,0,0,.73,2.24,23.83,23.83,0,0,0,4.8,4.61,5.91,5.91,0,0,1,2.23,3.63,2.1,2.1,0,0,1-1.32,2.31,2,2,0,0,1-2.36-1.22c-.22-.45-.25-1-.46-1.42s.23-1.28-.37-1.54-1.18.19-1.78.23a1.81,1.81,0,0,0-.78.16c-.29.16-.8,0-.84.56.22.31,0,.68.15,1a6.42,6.42,0,0,0,1.54,3.82c1.71,1.87,3.94,2,6.2,1.45a5.07,5.07,0,0,0,3.94-4.25,8.36,8.36,0,0,0,0-2C160.13,449,160,448.49,159.87,448Z" transform="translate(-55.73 -44.02)"/><path class="cls-3" d="M263.66,453.59c0-.63-.23-.83-.83-.82-1.22,0-2.44,0-3.66,0-.65,0-.89-.18-.87-.85,0-1.49,0-3,0-4.47,0-2,0-2,2-2,2.28,0,2.26,0,2.18-2.25,0-.51-.15-.73-.69-.7-.88,0-1.76,0-2.64,0-.69,0-.86-.23-.84-.87,0-1.52,0-3,0-4.57,0-.69.16-1,.89-.92,1.18.06,2.37,0,3.55,0,.65,0,.92-.14.87-.84s0-1.27.05-1.91c0,0,0-.09-.05-.09a68.17,68.17,0,0,0-9.48,0q0,11,0,22.08c.2.19.45.12.68.12H263c.23,0,.48.07.67-.12C263.66,454.87,263.62,454.23,263.66,453.59Z" transform="translate(-55.73 -44.02)"/><path class="cls-3" d="M224.54,381.68c0,.24,0,.48,0,.71s.16.48.49.48h8.53c.31,0,.54-.08.52-.45a8.68,8.68,0,0,0-.14-2.49l-4.56,0c-.41,0-.7,0-.69-.58,0-2.19,0-4.38.06-6.57a21.42,21.42,0,0,1,3.1-.11c.37,0,.8.19,1.11-.2-.3-.88.44-2.15-.37-2.63s-1.84-.1-2.79-.11h-.1c-.75.12-1.11-.12-1-1s0-1.49,0-2.23c0-1-.43-2.33.17-2.93s2-.19,3-.2c2.13,0,2.09,0,2.11-2.12,0-.72-.2-.91-.91-.9-2.8,0-5.61,0-8.41,0-.28.32-.14.71-.14,1.07Q224.53,371.59,224.54,381.68Z" transform="translate(-55.73 -44.02)"/><path class="cls-3" d="M279.69,399.84a8.68,8.68,0,0,0,.14-2.49c0-.37-.21-.45-.52-.45-3,.05-5.95-.09-8.93.08q0,11.08,0,22.17c3,.24,6,.05,9,.1.29,0,.45-.14.43-.43a9.53,9.53,0,0,0-.13-2.5l-5.05,0a49.21,49.21,0,0,1,0-7.08h0c.41-.22.85-.07,1.28-.11a12.23,12.23,0,0,0,2.77-.13c0-.71,0-1.42,0-2.13,0-.54-.17-.7-.7-.69-1.11,0-2.23,0-3.35,0a38,38,0,0,1,0-6.22Z" transform="translate(-55.73 -44.02)"/><path class="cls-3" d="M208.18,452.9l-.24-.09a45.75,45.75,0,0,1-5-.11,64.86,64.86,0,0,1,0-7.11,21.31,21.31,0,0,1,3.39-.11c.33,0,.73.06.69-.46a9,9,0,0,0-.13-2.48c-1.11,0-2.23,0-3.35,0-.53,0-.7-.16-.69-.7,0-1.66,0-3.32,0-5,0-.55.18-.7.7-.68,1.22,0,2.44,0,3.66,0,.68,0,1-.14.92-.88a17.75,17.75,0,0,1,0-1.93.46.46,0,0,0-.36-.15c-2.81,0-5.62,0-8.43,0-.69,0-.66.37-.66.84,0,6.91,0,13.81,0,20.72,0,.72.27.83.89.82,2.1,0,4.2,0,6.3,0,2.57,0,2.57,0,2.36-2.56A.46.46,0,0,0,208.18,452.9Z" transform="translate(-55.73 -44.02)"/><path class="cls-3" d="M256.37,374.91c.06,2.6,0,5.21,0,7.81a15.86,15.86,0,0,0,3.58.13c.39,0,.36-.31.37-.58,0-.94,0-1.88,0-2.82a50.66,50.66,0,0,1,.1-5.23,3.89,3.89,0,0,1,.13-.68c1.31-4.08,2.62-8.15,4-12.21.23-.69.18-.94-.58-.9s-1.56,0-2.34,0c-.43,0-.65,0-.81.59-.72,2.59-1.55,5.15-2.34,7.71-.33,0-.29-.29-.34-.46-.6-1.88-1.22-3.75-1.76-5.64-.63-2.18-.59-2.19-2.83-2.19h-1.75c1.12,3.46,2.25,6.82,3.29,10.2C255.5,372.07,256.33,373.4,256.37,374.91Z" transform="translate(-55.73 -44.02)"/><path class="cls-3" d="M197.65,433.29H187.2c-.2,0-.42-.05-.56.15,0,.67.06,1.34,0,2s.15,1,.94,1,1.8,0,2.71.05a2,2,0,0,1,.1,1.09v16.82c0,.24,0,.48,0,.71s.13.56.53.55c1.21,0,2.43.08,3.64-.08q0-9.12,0-18.25c0-.55,0-.95.76-.94.93,0,2.2.46,2.71-.19s.15-1.81.19-2.75C198.06,433.24,197.84,433.29,197.65,433.29Z" transform="translate(-55.73 -44.02)"/><path class="cls-3" d="M252.35,452.79a27.08,27.08,0,0,1-4.32-.09h0a2.06,2.06,0,0,1-.1-1.1c0-5.68,0-11.37,0-17.06,0-.23,0-.47,0-.71s-.14-.56-.53-.54a26,26,0,0,0-3.64.11v22.17c2.49.17,5,0,7.47.07,2,0,2,0,2-2C253.22,452.94,253,452.8,252.35,452.79Z" transform="translate(-55.73 -44.02)"/><path class="cls-3" d="M227.38,434.87c0-1.58,0-1.62-1.62-1.56a5.07,5.07,0,0,0-2.53.19c0,.37.06.73.07,1.1,0,6.66,0,13.31,0,20,0,1,.3,1.19,1.18,1.13s1.82,0,2.73.05c.41-.27.19-.68.19-1C227.39,448.11,227.38,441.49,227.38,434.87Z" transform="translate(-55.73 -44.02)"/><path class="cls-3" d="M227.08,419.15v-2.23c0-6.33,0-12.65,0-19,0-.81-.15-1.18-1-1.08a9.74,9.74,0,0,1-2,0c-.89-.1-1,.27-1,1.08,0,7.07,0,14.14,0,21.21A16.22,16.22,0,0,0,227.08,419.15Z" transform="translate(-55.73 -44.02)"/><path class="cls-3" d="M162.84,382.76a16.3,16.3,0,0,0,4.07,0c0-7.1,0-14.21,0-21.31,0-.76-.13-1.12-1-1a9.48,9.48,0,0,1-2.13,0c-.85-.09-1,.27-1,1C162.85,368.55,162.84,375.66,162.84,382.76Z" transform="translate(-55.73 -44.02)"/><path class="cls-4" d="M470.47,80.73c0,4.74,0,9.48,0,14.23a18.08,18.08,0,0,1-1.39,6.92,13.18,13.18,0,0,1-10.17,8.42,19.93,19.93,0,0,1-8.86-.22c-6-1.57-9-5.77-10.18-11.55a25.09,25.09,0,0,1-.42-4.74c0-8.81,0-17.62,0-26.43a20.9,20.9,0,0,1,1.72-8.79,12.52,12.52,0,0,1,9.45-7.51,21.31,21.31,0,0,1,9.37.13c5.52,1.36,8.6,5.16,9.83,10.5a34.54,34.54,0,0,1,.67,6.74c.1,4.1,0,8.2,0,12.3Zm-19.74-.07h-.05c0,4.54-.06,9.08,0,13.62a14.42,14.42,0,0,0,.77,4.25,3.43,3.43,0,0,0,3.61,2.41,3.39,3.39,0,0,0,3.42-2.53,16.58,16.58,0,0,0,.77-4.57q.11-13.07,0-26.12a20.49,20.49,0,0,0-.82-5.08c-.44-1.64-1.72-2.32-3.63-2.29a3.23,3.23,0,0,0-3.47,2.4,11.61,11.61,0,0,0-.6,3.17C450.69,70.83,450.73,75.75,450.73,80.66Z" transform="translate(-55.73 -44.02)"/><path class="cls-4" d="M549.78,207.75H522.53c-1.4,0-1.4,0-1.4-1.41,0-5.19,0-10.37,0-15.56,0-1,.26-1.27,1.25-1.26q27.45,0,54.9,0c1.24,0,1.3.06,1.3,1.33q0,7.77,0,15.55c0,1.23-.11,1.33-1.33,1.33Z" transform="translate(-55.73 -44.02)"/><path class="cls-4" d="M549.91,225.52h27.22c1.38,0,1.43,0,1.43,1.43q0,7.73,0,15.44c0,1.29-.08,1.36-1.39,1.36H522.51c-1.38,0-1.38,0-1.38-1.32,0-5.22,0-10.43,0-15.65,0-1,.28-1.28,1.26-1.28C531.55,225.54,540.73,225.52,549.91,225.52Z" transform="translate(-55.73 -44.02)"/><path class="cls-4" d="M497.6,188.87a14.31,14.31,0,0,1,.24,1.76q0,14.37,0,28.75v23.27c0,.31.08.68-.06.9a1,1,0,0,1-.78.3c-.22,0-.39-.35-.59-.54l-25.65-25.65c-.94-.94-.94-1.13,0-2q12.9-12.9,25.79-25.79C496.8,189.56,497.08,189.34,497.6,188.87Z" transform="translate(-55.73 -44.02)"/><path class="cls-4" d="M549.88,268.63h25.91a4.37,4.37,0,0,1,.81,0c.21,0,.51.15.56.29s-.09.43-.21.62a2.48,2.48,0,0,1-.42.44L550.8,295.71c-1,1-1,1-1.94,0L523.06,270a5.9,5.9,0,0,1-.49-.51c-.34-.47-.21-.76.37-.81.27,0,.54,0,.82,0Z" transform="translate(-55.73 -44.02)"/><path class="cls-4" d="M549.78,164.65H523.66a7.67,7.67,0,0,1-1.23-.25,4.37,4.37,0,0,1,.63-1.07q12.87-12.91,25.79-25.81c.9-.91,1-.9,2,0l25.74,25.73c.19.19.5.39.52.6a1,1,0,0,1-.37.76c-.18.12-.53,0-.8,0Z" transform="translate(-55.73 -44.02)"/><path class="cls-4" d="M602,188.94c.49.4.81.62,1.08.89Q616,202.76,629,215.68c.67.68.73,1.14,0,1.84q-13,12.94-26,25.93a4.19,4.19,0,0,1-1,.54,5,5,0,0,1-.22-1q0-26.32,0-52.64A12.24,12.24,0,0,1,602,188.94Z" transform="translate(-55.73 -44.02)"/><path class="cls-4" d="M422.5,109.6V63l-8.43,3v-8c2-1,4-2,5.9-3a17.33,17.33,0,0,0,3.48-2.26,4.62,4.62,0,0,1,3.66-1.22c1.79.09,3.59.07,5.38,0,.92,0,1.13.29,1.13,1.15,0,9,0,18,0,26.93v28.75c0,1.34,0,1.34-1.31,1.34H422.5Z" transform="translate(-55.73 -44.02)"/><path class="cls-4" d="M493.63,110V87.87c2.11,0,4.16,0,6.21,0a9.32,9.32,0,0,1,2.1.29,4.21,4.21,0,0,1,3.54,4,125.16,125.16,0,0,1,0,13.28c-.19,2.88-2.08,4.33-5,4.51C498.22,110.06,496,110,493.63,110Zm4-2.74c.59,0,1.1,0,1.6,0,1.47,0,2.36-.77,2.39-2.21.07-4.06.05-8.12,0-12.18a2,2,0,0,0-1.82-2.11,17.52,17.52,0,0,0-2.18,0Z" transform="translate(-55.73 -44.02)"/><path class="cls-4" d="M519.2,51.35c2.91.07,5.79-.31,8.6.49a4.67,4.67,0,0,1,3.42,4.76c.09,3.82.12,7.65,0,11.47-.1,3.14-1.7,5-4.79,5.31a66.9,66.9,0,0,1-7.23.05Zm4,19.32c2.82.58,4-.33,4.07-3q0-5.22,0-10.45c0-2.53-1.62-3.6-4.07-2.77Z" transform="translate(-55.73 -44.02)"/><path class="cls-4" d="M618.58,51.36c2.89,0,5.74-.31,8.52.46,2.51.7,3.43,2.7,3.49,5,.09,3.82.15,7.65-.12,11.46-.23,3.35-1.64,4.74-5,5.12a61.62,61.62,0,0,1-6.94,0Zm3.95,19.41c.4,0,.7,0,1,0,2.15,0,2.88-.52,3-2.65.16-2.8.12-5.61.12-8.41,0-1.24-.07-2.49-.17-3.74A1.73,1.73,0,0,0,625,54.37a20.13,20.13,0,0,0-2.51-.19Z" transform="translate(-55.73 -44.02)"/><path class="cls-4" d="M592.77,109.93V87.84c2.9.15,5.78-.39,8.59.44,2.42.7,3.36,2.61,3.41,4.87.09,4,.12,7.93-.13,11.87-.2,3-1.85,4.59-4.89,4.87C597.47,110.09,595.16,109.93,592.77,109.93Zm4-2.78.57.06c2.7.09,3.48-.62,3.51-3.33,0-3.18,0-6.36,0-9.54,0-.64-.08-1.28-.15-1.91a1.76,1.76,0,0,0-1.45-1.63,22.06,22.06,0,0,0-2.48-.19Z" transform="translate(-55.73 -44.02)"/><path class="cls-4" d="M620.62,87.74c2.68.11,5.26.07,7.79.38a4.38,4.38,0,0,1,4.07,4.46c.19,2.73.18,5.47.2,8.21a40.82,40.82,0,0,1-.18,4.14c-.26,2.8-1.68,4.52-4.46,4.83a70.45,70.45,0,0,1-7.42,0Zm4,19.43a15.46,15.46,0,0,0,2,0,1.92,1.92,0,0,0,1.85-2c.06-4.22,0-8.44,0-12.66A1.77,1.77,0,0,0,627,90.77a18.62,18.62,0,0,0-2.37-.14Z" transform="translate(-55.73 -44.02)"/><path class="cls-4" d="M493.63,73.52c0-.43-.05-.79-.05-1.16,0-6.6,0-13.21,0-19.81,0-.91.21-1.29,1.18-1.22,2.29.16,4.61.05,6.87.39,2.66.39,3.92,2.09,4,4.81a14,14,0,0,1-.05,2.33A4.24,4.24,0,0,1,503,62.63l3,10.88h-4c-.8-3.05-1.64-6.1-2.4-9.18-.18-.77-.53-.94-1.25-.94s-.92.29-.91,1c0,2.64,0,5.28,0,7.92v1.24Zm8.28-16c0-2.65-.94-3.55-3.57-3.44-.55,0-.81.17-.8.76,0,1.79,0,3.58,0,5.38,0,.51.2.69.72.72C500.82,61,501.9,60,501.91,57.49Z" transform="translate(-55.73 -44.02)"/><path class="cls-4" d="M583.36,62.39a63.62,63.62,0,0,1,0-6.48c.28-2.83,1.91-4.33,4.76-4.65a12.63,12.63,0,0,1,3.42.08,5,5,0,0,1,4.1,4.47,15.11,15.11,0,0,1,.21,2.42c0,2.85.05,5.69,0,8.54a12.93,12.93,0,0,1-.41,3.1,4.93,4.93,0,0,1-4.83,3.9,13.45,13.45,0,0,1-2.84-.06c-2.9-.49-4.48-2.58-4.61-6-.07-1.76,0-3.53,0-5.29Zm8.52.09h-.13c0-2.2.1-4.4,0-6.59-.09-1.33-.85-1.83-2.11-1.85s-2.19.49-2.23,1.83c-.1,4.43,0,8.86,0,13.29a.45.45,0,0,0,.07.29c.47.47.89,1.15,1.47,1.35,1.7.56,2.86-.42,3-2.53C592,66.35,591.88,64.41,591.88,62.48Z" transform="translate(-55.73 -44.02)"/><path class="cls-4" d="M609.72,51.43V73.57a12.58,12.58,0,0,1-2.14,0c-.29,0-.59-.48-.73-.8-1.53-3.64-3-7.3-4.56-11a2,2,0,0,0-.67-.92V73.52h-3.31V51.36a13.26,13.26,0,0,1,2.27,0c.31.05.64.53.79.89,1.5,3.4,3,6.82,4.45,10.23a2.25,2.25,0,0,0,.66,1v-12Z" transform="translate(-55.73 -44.02)"/><path class="cls-4" d="M553.34,87.91h3.71c0,.38.06.77.06,1.16,0,4.67,0,9.35,0,14a13.68,13.68,0,0,0,.35,2.7,2,2,0,0,0,2,1.55,2,2,0,0,0,2.09-1.59,7.94,7.94,0,0,0,.25-2c0-4.88,0-9.75,0-14.63V87.93h3.85c0,.41.06.81.06,1.2,0,4.47,0,8.94,0,13.41a20.28,20.28,0,0,1-.52,4.11,4.24,4.24,0,0,1-3.72,3.42,13.21,13.21,0,0,1-3.92,0c-2.38-.39-3.69-2-4.06-4.56a17.82,17.82,0,0,1-.21-2.63q0-7.11,0-14.22C553.29,88.43,553.32,88.2,553.34,87.91Z" transform="translate(-55.73 -44.02)"/><path class="cls-4" d="M550.92,109.92h-2.41l-.38-2.08a4,4,0,0,1-4.47,2.44c-2.86-.31-4.42-1.55-4.85-4.58a45.61,45.61,0,0,1,.06-13.85c.44-2.7,2-3.94,4.74-4.19a13.36,13.36,0,0,1,3,.06,4.31,4.31,0,0,1,3.89,3.48,37.78,37.78,0,0,1,.49,3.85h-3.78c-.08-.93-.13-1.84-.25-2.73a1.89,1.89,0,0,0-2.11-1.86,2.06,2.06,0,0,0-2.23,1.77,4.75,4.75,0,0,0-.13.91c0,4,0,7.92.13,11.87.05,1.62.83,2.28,2.13,2.36a2.24,2.24,0,0,0,2.48-2.16,19.46,19.46,0,0,0,.16-3.33c0-.21-.36-.54-.59-.58a10.73,10.73,0,0,0-1.72,0V98.88h5.81Z" transform="translate(-55.73 -44.02)"/><path class="cls-4" d="M542.1,51.36c1.15,0,2.23,0,3.3,0,.19,0,.51.42.51.65,0,5.39.15,10.78-.08,16.16-.22,5-5.76,7.52-10,4.7a5.35,5.35,0,0,1-2.22-4.59c-.11-5.58,0-11.17,0-16.86h3.77V52.6c0,4.77,0,9.55,0,14.32a10.41,10.41,0,0,0,.24,2.22,2,2,0,0,0,2.17,1.72,2,2,0,0,0,2.07-1.71,9.13,9.13,0,0,0,.24-2c0-4.81,0-9.62,0-14.43Z" transform="translate(-55.73 -44.02)"/><path class="cls-4" d="M574.42,59.33H570.6c0-1.1,0-2.18,0-3.24a1.92,1.92,0,0,0-2.4-2,1.88,1.88,0,0,0-1.75,1.58,7.54,7.54,0,0,0-.2,1.71q0,5.08,0,10.16a8.23,8.23,0,0,0,.2,1.71A2,2,0,0,0,568.59,71a1.91,1.91,0,0,0,2-2c.07-1.18,0-2.36,0-3.58h3.84c.13,2.31.23,4.58-1.17,6.61a2.87,2.87,0,0,1-.55.6c-2.13,1.59-4.48,1.53-6.87.84-2.11-.61-3-2.3-3.38-4.3a12.82,12.82,0,0,1-.22-2.62c0-3.49,0-7,.23-10.46.22-2.91,1.85-4.43,4.75-4.78a12,12,0,0,1,3.43.12A4.18,4.18,0,0,1,574,54.29,11.87,11.87,0,0,1,574.42,59.33Z" transform="translate(-55.73 -44.02)"/><path class="cls-4" d="M560.52,59.37c-1.37,0-2.38,0-3.39,0a4.51,4.51,0,0,1-.59-.09c0-1.05,0-2.06,0-3.06,0-1.42-.68-2.11-1.9-2.17A2.06,2.06,0,0,0,552.24,56a8.55,8.55,0,0,0-.06,1q0,5.4,0,10.78a6.34,6.34,0,0,0,.18,1.5A2,2,0,0,0,554.56,71a2,2,0,0,0,1.94-1.87,14.22,14.22,0,0,0,0-1.73c0-.64,0-1.27,0-2h4a45.73,45.73,0,0,1-.57,4.94,4,4,0,0,1-3.57,3.28,13.91,13.91,0,0,1-4.51-.16c-2.17-.5-3.56-2.55-3.62-5.2-.1-3.83-.13-7.66,0-11.48.11-3.39,1.8-5.15,5.15-5.56a10.91,10.91,0,0,1,3.32.21A3.94,3.94,0,0,1,560,54.54C560.29,56.07,560.33,57.65,560.52,59.37Z" transform="translate(-55.73 -44.02)"/><path class="cls-4" d="M659.75,73.58c.33-1.64.61-3.16.92-4.66,1.13-5.56,2.28-11.12,3.39-16.68.13-.67.37-.94,1.05-.9a11.47,11.47,0,0,0,2,0c1-.11,1.35.24,1.54,1.19,1.32,6.7,2.69,13.38,4,20.06a8.53,8.53,0,0,1,.09,1h-3.58c-.26-1.42-.54-2.83-.75-4.26-.1-.68-.41-.85-1.07-.86-3,0-3,0-3.55,2.88-.42,2.29-.42,2.29-2.75,2.29Zm5.06-7.79h3.06c-.48-2.93-.93-5.75-1.39-8.57h-.26C665.76,60,665.3,62.84,664.81,65.79Z" transform="translate(-55.73 -44.02)"/><path class="cls-4" d="M618.9,109.81l-.23.13c-3.46.3-3.41.29-4-3.1-.4-2.32.16-1.93-2.22-2-.64,0-1.28,0-2,0l-.93,5h-3.72c1.49-7.36,3-14.66,4.48-22.06,1.26,0,2.48,0,3.68,0,.24,0,.59.49.65.8,1,5,2.06,10,3.08,15.08C618.07,105.78,618.49,107.8,618.9,109.81Zm-8.06-7.56h3.07c-.48-2.9-.94-5.73-1.4-8.55h-.28C611.77,96.52,611.32,99.33,610.84,102.25Z" transform="translate(-55.73 -44.02)"/><path class="cls-4" d="M580.2,110c-1.05,0-2.07,0-3.07,0-.24,0-.58-.41-.64-.68-.25-1.15-.47-2.32-.61-3.49-.09-.67-.32-1-1-.91-1,0-2,0-3.07,0-.32,1.72-.62,3.34-.93,5h-3.68c.19-1.05.37-2.11.59-3.17,1.2-6,2.43-11.91,3.61-17.87.15-.76.42-1.14,1.24-1a11.36,11.36,0,0,0,1.43,0c2.2,0,1.69-.21,2.09,1.7,1.4,6.64,2.72,13.3,4.06,20A3.38,3.38,0,0,1,580.2,110Zm-6.35-16.36h-.26q-.68,4.3-1.37,8.59h3C574.78,99.27,574.31,96.44,573.85,93.61Z" transform="translate(-55.73 -44.02)"/><path class="cls-4" d="M526.59,94.13c-.18-.84-.29-1.57-.51-2.27a1.77,1.77,0,0,0-2-1.34,1.94,1.94,0,0,0-1.78,1.9,3.84,3.84,0,0,0,1.53,3.27c1.13,1,2.32,2,3.43,3a8.11,8.11,0,0,1,3,6.3,5.19,5.19,0,0,1-6,5.25c-3.84-.31-5.32-2.11-5.7-6.67l3.35-.72a19,19,0,0,0,.4,2.16,4.74,4.74,0,0,0,.75,1.53,1.71,1.71,0,0,0,2.19.53,2.54,2.54,0,0,0,1.13-1.61,3.86,3.86,0,0,0-1.32-3.56c-1.27-1.21-2.61-2.36-3.93-3.52a6.73,6.73,0,0,1-2.51-4.48c-.42-4.38,2.2-6.6,6.25-6.33,3.6.23,4.52,2.56,4.9,5.31a.87.87,0,0,1-.47.69C528.44,93.81,527.54,94,526.59,94.13Z" transform="translate(-55.73 -44.02)"/><path class="cls-4" d="M677.23,66.46a25.78,25.78,0,0,0,.65,2.76,2.13,2.13,0,0,0,2.51,1.56,1.85,1.85,0,0,0,1.35-2.38,6.62,6.62,0,0,0-1.38-2.93A35.17,35.17,0,0,0,676.52,62a6.69,6.69,0,0,1-2.59-5.59c.15-4.32,3.36-5.52,6.37-5.26s4.86,2.43,4.82,5.9l-3.21.68c-.14-.77-.22-1.48-.41-2.15a1.86,1.86,0,0,0-2.11-1.49,2,2,0,0,0-1.75,2,3.73,3.73,0,0,0,1.42,3c1.18,1.07,2.41,2.08,3.58,3.16a8,8,0,0,1,2.94,6.62,5.08,5.08,0,0,1-4.81,4.87c-4.2.25-6.51-1.77-6.77-6,0-.25.19-.71.38-.76C675.31,66.81,676.27,66.65,677.23,66.46Z" transform="translate(-55.73 -44.02)"/><path class="cls-4" d="M653.46,94.14c-.15-.84-.22-1.51-.4-2.16a1.87,1.87,0,0,0-2-1.47,2,2,0,0,0-1.82,1.87,3.48,3.48,0,0,0,1.23,3c1.14,1.06,2.33,2.06,3.49,3.1,2,1.77,3.31,3.81,3.21,6.61a5.24,5.24,0,0,1-5.85,5.2c-3.86-.34-5.53-2.25-5.76-6.71l3.32-.71a12,12,0,0,0,.36,2.07,3.61,3.61,0,0,0,1,1.79,2.57,2.57,0,0,0,2,.29,2.24,2.24,0,0,0,1-1.55,3.89,3.89,0,0,0-1.31-3.58q-1.92-1.8-4-3.5a6.86,6.86,0,0,1-2.44-6.53c.31-2.55,2.35-4.24,5.43-4.3,3.49-.06,5.22,1.61,5.65,5.28a.87.87,0,0,1-.43.73C655.34,93.81,654.4,94,653.46,94.14Z" transform="translate(-55.73 -44.02)"/><path class="cls-4" d="M633.06,51.42h9.17V54.2c-1.36,0-2.71.06-4,0-1-.07-1.27.28-1.23,1.25.08,1.68,0,3.37,0,5.16h4.1v2.82c-1,0-2.07,0-3.1,0-.73,0-1,.16-1,.95,0,1.86,0,3.73,0,5.59,0,.7.19,1,.91.94,1.42,0,2.84,0,4.34,0v2.65h-9.16Z" transform="translate(-55.73 -44.02)"/><path class="cls-4" d="M517.38,51.42v2.75h-5.19V60.6h4v2.79h-3.94v7.48h5.17V73.5h-9.18V51.42Z" transform="translate(-55.73 -44.02)"/><path class="cls-4" d="M644.22,90.56h-5.14V97h4V99.8h-4v7.45h5.17v2.63h-9.16V87.93h9.13Z" transform="translate(-55.73 -44.02)"/><path class="cls-4" d="M512.18,97h4v2.81c-1.08,0-2.15,0-3.22,0-.28,0-.78.31-.78.49-.06,2.25,0,4.51,0,6.91h5.28v2.63h-9.15v-22h9c0,.07.08.1.08.13.45,2.38.32,2.54-2,2.54h-3Z" transform="translate(-55.73 -44.02)"/><path class="cls-4" d="M654.05,70.91h5.26V73.5h-9.18V51.42h3.92Z" transform="translate(-55.73 -44.02)"/><path class="cls-4" d="M582,87.91h3.79v1.25c0,5.62,0,11.25,0,16.87,0,1,.27,1.3,1.25,1.25,1.38-.08,2.76,0,4.17,0v2.64H582Z" transform="translate(-55.73 -44.02)"/><path class="cls-4" d="M536,109.94h-3.74v-22H536Z" transform="translate(-55.73 -44.02)"/><path class="cls-4" d="M580.63,73.52H576.9V51.46h3.73Z" transform="translate(-55.73 -44.02)"/><path class="cls-4" d="M588.59,49.26c.51-1.75,1-3.48,1.54-5.24h3.64c-.3.53-.55,1-.83,1.48q-.77,1.3-1.56,2.61C590.51,49.56,590.49,49.57,588.59,49.26Z" transform="translate(-55.73 -44.02)"/></svg>