<svg id="Capa_1" data-name="Capa 1" xmlns="http://www.w3.org/2000/svg" viewBox="0 0 1616.8 457.99"><defs><style>.cls-1{fill:#29a9aa;}</style></defs><title>Hapi-icon</title><path d="M1296,698.34V343.62h72.13v28.76c32.44-33.24,70.8-37.68,111.6-30.25,29.77,5.42,54.53,20.33,73.31,44.27,41.23,52.59,36.56,137.31-8.85,184.11-39.13,40.32-122.48,53.79-171.43,7.7-.23,4.73-.56,8.5-.57,12.28,0,32,0,64.09-.09,96.14,0,3.9-1,7.81-1.53,11.71Zm208.29-224.49c.14-36-18.62-63.27-48.48-70.59-41.7-10.22-77.18,13.48-83.67,55.89-6.25,40.83,12.94,75.28,46.79,84C1465.6,555.17,1504.14,523.88,1504.33,473.85Z" transform="translate(-91.6 -240.35)"/><path d="M1708.4,602.16c-12.29.55-24.58,1.32-36.88,1.59-12.71.27-25.42.06-39,.06V344.21h75.87Z" transform="translate(-91.6 -240.35)"/><path class="cls-1" d="M343.33,603.53c-46.67-.53-84.8-10.19-120.85-28.79-4.82-2.49-11.95-3-17.25-1.66-21.15,5.57-42,12.23-63,18.56-14.82,4.48-28.41,2.57-39.54-8.58S89.34,558.56,94,543.71c7.2-22.9,14.54-45.77,21-68.87a26.44,26.44,0,0,0-1.17-16.31C100,426,91.67,392.35,91.6,356.85c0-23.29,15.34-40.16,36.81-40.4,21.29-.24,37,16.4,37.81,39.78,2.43,70.06,34,123,96.5,155.1C364.16,563.42,490.31,496.4,506.37,383c1.38-9.7,1.81-19.55,2.39-29.35C510,332,526.44,316,546.9,316.45c20.73.51,36.19,16.87,36.46,38.6C585,489.87,471.78,604.18,343.33,603.53Z" transform="translate(-91.6 -240.35)"/><path d="M851.56,602.89V560.66q0-43.7,0-87.4c0-3.64,0-7.28-.14-10.92-1.43-38.75-18.14-57.22-52.15-57.69-35.93-.49-61,21.58-62.34,57.65-1.43,38.18-.63,76.45-.78,114.68,0,8.32,0,16.65,0,25.9H660.77V240.35h74.74v127.9c3.09-1.68,4.65-2.26,5.9-3.23,35.82-28,76.28-32.56,118.16-19.53,45,14,65.5,49.08,67.1,93.8,1.94,54.17.46,108.45.46,163.6Z" transform="translate(-91.6 -240.35)"/><path d="M1226.53,603.15h-69.74v-27.1c-15.5,16.77-33.69,26.52-55.29,29.47-27.15,3.71-54,3-79.24-9.4-29.36-14.34-44.75-40.48-42.88-72.34,1.94-33,19.78-54.88,50.55-64,19.63-5.78,40.76-7.34,61.35-8.84,19.56-1.42,39.3-.3,58.78-.3,3.47-22.15-9-41.53-31.48-47.7-33.18-9.13-64.28-2.15-93.72,14.29-2.85,1.6-5.53,3.49-8.95,5.65-9-17.34-17.77-34.39-26.95-52.14,21.79-15.77,46.25-23.79,71.87-28.11,32.71-5.5,65.52-5.94,97.49,4.61,43.27,14.26,66.88,45.78,68.74,97.23,1.88,51.62.54,103.36.57,155C1227.63,600.56,1227,601.55,1226.53,603.15Zm-76-107.59c-22.33,0-44.5-.18-66.65.16-4.23.06-8.51,1.94-12.62,3.38-11.13,3.9-17.3,12-18.19,23.57s3.31,21.28,13.58,26.68c22.24,11.71,44.51,9.66,65.58-3.12C1151.53,534.54,1154.36,516.26,1150.55,495.56Z" transform="translate(-91.6 -240.35)"/><path class="cls-1" d="M374.79,307.22c10.48,0,19.57-.17,28.64,0,22.32.51,39,16.86,38.67,37.7-.32,20.6-16.68,36.23-38.46,36.59-9.09.15-18.18,0-28.85,0,0,9.63.08,18.57,0,27.52-.25,23-16.37,40-37.67,39.72-21-.23-36.64-16.91-36.9-39.35-.1-8.72,0-17.44,0-27.89-9.84,0-19.17.11-28.5,0-22.36-.33-39.07-16.42-38.87-37.3.19-20.51,16.53-36.41,38.28-37,9.12-.24,18.25,0,29.09,0,0-9.37-.07-18.3,0-27.23.22-23.21,16-39.81,37.62-39.58,21.25.23,36.67,16.53,37,39.16C374.88,288.28,374.79,297,374.79,307.22Z" transform="translate(-91.6 -240.35)"/><path d="M1705.64,315.4h-74V240.73h74Z" transform="translate(-91.6 -240.35)"/></svg>