<svg id="Capa_1" data-name="Capa 1" xmlns="http://www.w3.org/2000/svg" xmlns:xlink="http://www.w3.org/1999/xlink" viewBox="0 0 1555.68 299.95"><defs><style>.cls-1{fill:#141f28;}.cls-2{fill:url(#Degradado_sin_nombre_2);}.cls-3{fill:#29a9aa;}</style><linearGradient id="Degradado_sin_nombre_2" x1="22436.53" y1="-29083.56" x2="5373.67" y2="-29083.56" gradientTransform="matrix(0.03, 0, 0, -0.03, 0.97, 52.05)" gradientUnits="userSpaceOnUse"><stop offset="0" stop-color="#29a9aa"/><stop offset="1" stop-color="#4056a5"/></linearGradient></defs><title>LogoOpacif</title><g id="Capa_1-2" data-name="Capa_1"><g id="_2310153458912" data-name=" 2310153458912"><path class="cls-1" d="M769.4,996q-26.52,0-47.58-11.07a82.36,82.36,0,0,1-32.91-30.73q-11.85-19.67-11.86-44.62T688.91,865a82.32,82.32,0,0,1,32.91-30.74q21.06-11.07,47.58-11.07t47.42,11.07A82.6,82.6,0,0,1,849.57,865q11.86,19.65,11.86,44.6t-11.86,44.62a82.65,82.65,0,0,1-32.75,30.73Q795.91,996,769.4,996Zm0-39.93q18.72,0,30.73-12.64t12-33.85q0-21.21-12-33.84T769.4,863.07q-18.72,0-30.89,12.64t-12.17,33.84q0,21.23,12.17,33.85T769.4,956Zm228.09-132.9a85.5,85.5,0,0,1,42.59,10.76,77.46,77.46,0,0,1,30.11,30.26q10.9,19.5,10.91,45.39T1070.19,955a77.39,77.39,0,0,1-30.11,30.26A85.5,85.5,0,0,1,997.49,996Q965.36,996,947,975.7V1054H898.29V823.25h46.48V845Q962.86,823.15,997.49,823.14ZM989.07,956q18.72,0,30.73-12.64t12-33.85q0-21.21-12-33.84t-30.73-12.64q-18.72,0-30.73,12.64t-12,33.84q0,21.23,12,33.85T989.07,956Zm193.78-132.9q39,0,59.9,18.56t20.9,56v95.78h-45.54V972.57q-13.74,23.4-51.17,23.4-19.34,0-33.53-6.55t-21.69-18.09a47.12,47.12,0,0,1-7.48-26.21q0-23.4,17.62-36.81t54.44-13.42H1215q0-15.9-9.68-24.48t-29-8.59a84.66,84.66,0,0,0-26.36,4.22,69.72,69.72,0,0,0-22,11.38l-17.48-34q13.74-9.67,32.92-15A147.62,147.62,0,0,1,1182.85,823.14Zm-3.74,140.07a42.45,42.45,0,0,0,22.15-5.76,31.62,31.62,0,0,0,13.73-17V923.28h-33.38q-30,0-30,19.65a17.48,17.48,0,0,0,7.34,14.82Q1166.33,963.22,1179.11,963.21ZM1395,996q-26.82,0-48.2-11.07a83,83,0,0,1-33.38-30.73q-12-19.67-12-44.62t12-44.6a83,83,0,0,1,33.38-30.74q21.38-11.07,48.2-11.07,26.52,0,46.33,11.07a65.74,65.74,0,0,1,28.86,31.67l-37.75,20.28q-13.11-23.08-37.75-23.09-19,0-31.51,12.48t-12.48,34q0,21.54,12.48,34T1394.73,956q25,0,37.75-23.08l37.75,20.59a66.94,66.94,0,0,1-28.86,31.19Q1421.56,996,1395,996Zm107.68-173h48.66V993.48h-48.66Zm151.66,6.44h43.06v37.44h-41.81V993.48H1607V866.82h-25.9V829.38H1607v-7.49q0-28.7,17-45.54t47.89-16.85a89.34,89.34,0,0,1,20.75,2.33,50.73,50.73,0,0,1,16.38,6.71l-12.79,35.26a33.32,33.32,0,0,0-19.66-5.93q-22.14,0-22.15,24.33Z" transform="translate(-153.3 -754.05)"/><path class="cls-2" d="M222.42,996A172.7,172.7,0,0,1,517.25,873.87V874a172.09,172.09,0,0,1,50.59,122h-47.7a125,125,0,1,0-250,0Zm-69.12,0a243.44,243.44,0,0,1,4-43.88,240.49,240.49,0,0,1,11.8-42.31,23.83,23.83,0,0,1,44.54,17,193.17,193.17,0,0,0-9.57,33.94A196.13,196.13,0,0,0,201,996Zm90.94-122.25a23.77,23.77,0,0,1-36.89-30,242.87,242.87,0,0,1,66.9-57.17A240.37,240.37,0,0,1,357,757.24a23.77,23.77,0,1,1,7.45,47,192.71,192.71,0,0,0-66.3,23.55A195.5,195.5,0,0,0,244.24,873.74ZM425.86,804.2a23.77,23.77,0,0,1,7.45-47A241.94,241.94,0,0,1,637,996H589.26A194.14,194.14,0,0,0,425.86,804.2ZM291.57,996a103.19,103.19,0,0,1,30.34-73.14v-.09a103.42,103.42,0,0,1,146.36,0l.09.09A103.23,103.23,0,0,1,498.7,996H451a55.86,55.86,0,1,0-111.72,0Z" transform="translate(-153.3 -754.05)"/><polygon class="cls-3" points="1397.51 0 1397.52 47.71 1350 47.71 1349.99 0 1397.51 0"/></g></g></svg>