<svg id="Capa_1" data-name="Capa 1" xmlns="http://www.w3.org/2000/svg" viewBox="0 0 888.86 889.29"><defs><style>.cls-1{fill:#f4a44d;}.cls-2{fill:#69b2ed;}</style></defs><title>LogoKennis</title><path class="cls-1" d="M185.63,512.43c0,245.33,198.89,444.22,444.22,444.22V68.21c-245.33,0-444.22,198.88-444.22,444.22" transform="translate(-185.63 -67.35)"/><path class="cls-2" d="M1074.5,512c0-245.57-199.08-444.65-444.65-444.65v889.3c245.57,0,444.65-199.08,444.65-444.65" transform="translate(-185.63 -67.35)"/><path class="cls-1" d="M707.49,538.09a79,79,0,0,0-79-79v158a79,79,0,0,0,79-79" transform="translate(-185.63 -67.35)"/><path class="cls-2" d="M549.38,538.16a79.09,79.09,0,0,0,79.1,79.09V459.07a79.09,79.09,0,0,0-79.1,79.09" transform="translate(-185.63 -67.35)"/><polygon class="cls-2" points="126.75 815.54 126.75 590.04 158.21 590.04 158.21 696.39 209.99 590.04 239.22 590.04 194.68 689.43 246.46 815.54 215.84 815.54 172.69 709.75 158.21 735.92 158.21 815.54 126.75 815.54"/><polygon class="cls-2" points="248.93 815.54 248.93 590.04 336.34 590.04 336.34 613.43 280.39 613.43 280.39 688.03 325.76 688.03 325.76 710.31 280.39 710.31 280.39 792.99 336.9 792.99 336.9 815.54 248.93 815.54"/><polygon class="cls-2" points="344.87 815.54 344.87 590.04 366.31 590.04 430.34 739.82 430.34 590.04 456.51 590.04 456.51 815.54 436.46 815.54 371.6 661.59 371.6 815.54 344.87 815.54"/><polygon class="cls-1" points="470.21 817.66 470.21 592.17 491.65 592.17 555.68 741.94 555.68 592.17 581.85 592.17 581.85 817.66 561.8 817.66 496.94 663.71 496.94 817.66 470.21 817.66"/><rect class="cls-1" x="592.83" y="592.17" width="30.9" height="225.5"/><path class="cls-1" d="M876.44,887.52q-19.5,0-32.44-8.35a52.62,52.62,0,0,1-19.62-23.1q-6.69-14.76-7.8-34.25l27.84-7.52a125.12,125.12,0,0,0,3.76,23.11,41.44,41.44,0,0,0,9.6,18.24q6.69,7.1,18.66,7.09,12.24,0,18.51-6.81t6.26-19.63q0-15.31-7-24.64a130,130,0,0,0-17.53-18.79l-37.87-33.41a63.58,63.58,0,0,1-16.42-21.29q-5.29-11.55-5.29-28.54,0-24.78,14.19-38.42T870,657.57a72.62,72.62,0,0,1,23.53,3.48,41.34,41.34,0,0,1,17,10.72A52.76,52.76,0,0,1,921.4,690a104.2,104.2,0,0,1,5.43,25.76L900.1,723a111.25,111.25,0,0,0-3.34-20.46,30.47,30.47,0,0,0-8.77-15q-6.27-5.7-18-5.71t-18.23,6.26q-6.56,6.27-6.54,18.52,0,10.3,3.48,17T860,737.19l38.14,33.41a118.9,118.9,0,0,1,22.55,26.59q9.75,15.45,9.75,36.6,0,16.71-7,28.82a46.92,46.92,0,0,1-19.07,18.51q-12.1,6.4-28,6.4" transform="translate(-185.63 -67.35)"/></svg>