<svg id="Capa_2" data-name="Capa 2" xmlns="http://www.w3.org/2000/svg" xmlns:xlink="http://www.w3.org/1999/xlink" viewBox="0 0 1619.15 800.21"><defs><style>.cls-1{fill:url(#Degradado_sin_nombre_2);}</style><linearGradient id="Degradado_sin_nombre_2" x1="60280.4" y1="-29930.23" x2="3160.36" y2="-29930.23" gradientTransform="matrix(0.03, 0, 0, -0.03, 0.97, 52.05)" gradientUnits="userSpaceOnUse"><stop offset="0" stop-color="#00a9c5"/><stop offset="1" stop-color="#4770b6"/></linearGradient></defs><title>Opacif-Icon</title><path class="cls-1" d="M322,1300.57C322,1141,386.7,996.39,491.32,891.76S740.53,722.4,900.13,722.4s304.19,64.74,408.81,169.36v.3c104.61,104.62,169.37,249.11,169.37,408.51h-159.7a418.48,418.48,0,1,0-836.95,0Zm-231.4,0a814.14,814.14,0,0,1,13.58-146.87A805.07,805.07,0,0,1,143.62,1012a79.77,79.77,0,1,1,149.1,56.76,646,646,0,0,0-32,113.61,655.61,655.61,0,0,0-10.44,118.16ZM395,891.32A79.59,79.59,0,0,1,271.51,790.89,807.36,807.36,0,0,1,772.33,501.35a79.58,79.58,0,0,1,24.94,157.19,645.68,645.68,0,0,0-222,78.84A654.31,654.31,0,0,0,395,891.32Zm608-232.78a79.58,79.58,0,1,1,24.94-157.19c194.61,30.9,366.09,131,488.24,274.33,120.66,141.51,193.53,324.85,193.53,524.89H1550c0-161-58.31-308.14-154.84-421.36C1296.85,763.9,1159.11,683.33,1003,658.54Zm-449.56,642A345.49,345.49,0,0,1,655,1055.74v-.29a346.23,346.23,0,0,1,490,0l.29.29a345.45,345.45,0,0,1,101.56,244.83h-159.7a187,187,0,1,0-374,0Z" transform="translate(-90.56 -500.36)"/></svg>